<svg width="1134" height="227" xmlns="http://www.w3.org/2000/svg" xmlns:xlink="http://www.w3.org/1999/xlink" overflow="hidden"><defs><clipPath id="clip0"><path d="M0 0 1134 0 1134 227 0 227Z" fill-rule="evenodd" clip-rule="evenodd"/></clipPath><clipPath id="clip1"><path d="M-17 58 95 58 95 170-17 170Z" fill-rule="evenodd" clip-rule="evenodd"/></clipPath><clipPath id="clip2"><path d="M-17 58 95 58 95 170-17 170Z" fill-rule="evenodd" clip-rule="evenodd"/></clipPath><clipPath id="clip3"><path d="M-17 58 95 58 95 170-17 170Z" fill-rule="evenodd" clip-rule="evenodd"/></clipPath><clipPath id="clip4"><path d="M696 77 772 77 772 152 696 152Z" fill-rule="evenodd" clip-rule="evenodd"/></clipPath><clipPath id="clip5"><path d="M696 77 772 77 772 152 696 152Z" fill-rule="evenodd" clip-rule="evenodd"/></clipPath><clipPath id="clip6"><path d="M696 77 772 77 772 152 696 152Z" fill-rule="evenodd" clip-rule="evenodd"/></clipPath><linearGradient x1="-15.533" y1="90.5299" x2="90.533" y2="-15.536" gradientUnits="userSpaceOnUse" spreadMethod="pad" id="fill7"><stop offset="0" stop-color="#C8511B"/><stop offset="1" stop-color="#FF9900"/></linearGradient><clipPath id="clip8"><path d="M406 74 482 74 482 150 406 150Z" fill-rule="evenodd" clip-rule="evenodd"/></clipPath><clipPath id="clip9"><path d="M406 74 482 74 482 150 406 150Z" fill-rule="evenodd" clip-rule="evenodd"/></clipPath><clipPath id="clip10"><path d="M406 74 482 74 482 150 406 150Z" fill-rule="evenodd" clip-rule="evenodd"/></clipPath><linearGradient x1="-15.3328" y1="89.3329" x2="89.323" y2="-15.3229" gradientUnits="userSpaceOnUse" spreadMethod="pad" id="fill11"><stop offset="0" stop-color="#BD0816"/><stop offset="1" stop-color="#FF5252"/></linearGradient><clipPath id="clip12"><path d="M331 10 367 10 367 46 331 46Z" fill-rule="evenodd" clip-rule="evenodd"/></clipPath><clipPath id="clip13"><path d="M331 10 367 10 367 46 331 46Z" fill-rule="evenodd" clip-rule="evenodd"/></clipPath><clipPath id="clip14"><path d="M331 10 367 10 367 46 331 46Z" fill-rule="evenodd" clip-rule="evenodd"/></clipPath><clipPath id="clip15"><path d="M984 77 1060 77 1060 152 984 152Z" fill-rule="evenodd" clip-rule="evenodd"/></clipPath><clipPath id="clip16"><path d="M984 77 1060 77 1060 152 984 152Z" fill-rule="evenodd" clip-rule="evenodd"/></clipPath><clipPath id="clip17"><path d="M984 77 1060 77 1060 152 984 152Z" fill-rule="evenodd" clip-rule="evenodd"/></clipPath><linearGradient x1="-15.53" y1="90.5299" x2="90.5299" y2="-15.53" gradientUnits="userSpaceOnUse" spreadMethod="pad" id="fill18"><stop offset="0" stop-color="#2E27AD"/><stop offset="1" stop-color="#527FFF"/></linearGradient><clipPath id="clip19"><path d="M146 58 259 58 259 170 146 170Z" fill-rule="evenodd" clip-rule="evenodd"/></clipPath><clipPath id="clip20"><path d="M146 58 259 58 259 170 146 170Z" fill-rule="evenodd" clip-rule="evenodd"/></clipPath><clipPath id="clip21"><path d="M146 58 259 58 259 170 146 170Z" fill-rule="evenodd" clip-rule="evenodd"/></clipPath></defs><g clip-path="url(#clip0)"><rect x="0" y="0" width="1134" height="226.867" fill="#FFFFFF" transform="scale(1 1.00059)"/><g clip-path="url(#clip1)"><g clip-path="url(#clip2)"><g clip-path="url(#clip3)"><path d="M74 34.6875C74 44.9048 65.7173 53.1875 55.5 53.1875 45.2827 53.1875 37 44.9048 37 34.6875 37 24.4702 45.2827 16.1875 55.5 16.1875 65.7173 16.1875 74 24.4702 74 34.6875Z" transform="matrix(1 0 -0 1 -16 59)"/><path d="M92.5 94.8125 92.5 76.3125C92.5 73.5375 91.1125 70.7625 88.8 68.9125 83.7125 64.75 77.2375 61.975 70.7625 60.125 66.1375 58.7375 61.05 57.8125 55.5 57.8125 50.4125 57.8125 45.325 58.7375 40.2375 60.125 33.7625 61.975 27.2875 65.2125 22.2 68.9125 19.8875 70.7625 18.5 73.5375 18.5 76.3125L18.5 94.8125 92.5 94.8125Z" transform="matrix(1 0 -0 1 -16 59)"/></g></g></g><text font-family="Calibri,Calibri_MSFontService,sans-serif" font-weight="400" font-size="19" transform="matrix(1 0 0 1.00059 6.30613 176)">Site user</text><g clip-path="url(#clip4)"><g clip-path="url(#clip5)"><g clip-path="url(#clip6)"><path d="M0 0 74.9999 0 74.9999 74.9999 0 74.9999Z" fill="url(#fill7)" transform="matrix(1 0 -0 1 696 77.0001)"/><path d="M60.5 62.5 48.18 62.5C47.7953 62.4989 47.4454 62.2772 47.28 61.93L29.86 25.5 22.49 25.5C21.9377 25.5 21.49 25.0523 21.49 24.5L21.49 13.5C21.49 12.9477 21.9377 12.5 22.49 12.5L37.89 12.5C38.2746 12.5011 38.6246 12.7227 38.79 13.07L56.13 49.5 60.5 49.5C61.0522 49.5 61.5 49.9477 61.5 50.5L61.5 61.5C61.5 62.0522 61.0522 62.5 60.5 62.5ZM48.81 60.5 59.5 60.5 59.5 51.5 55.5 51.5C55.1153 51.4989 54.7654 51.2772 54.6 50.93L37.26 14.5 23.5 14.5 23.5 23.5 30.5 23.5C30.8846 23.5011 31.2346 23.7227 31.4 24.07Z" fill="#FFFFFF" transform="matrix(1 0 -0 1 696 77.0001)"/><path d="M27.48 62.5 14.48 62.5C14.1345 62.5006 13.8131 62.3229 13.63 62.03 13.4356 61.7296 13.4166 61.3482 13.58 61.03L27.18 32.62C27.3454 32.2727 27.6953 32.0511 28.08 32.05L28.08 32.05C28.4624 32.0492 28.8117 32.2666 28.98 32.61L35.49 46C35.6227 46.2748 35.6227 46.5952 35.49 46.87L28.39 61.87C28.2411 62.244 27.8825 62.4923 27.48 62.5ZM16.08 60.5 26.85 60.5 33.48 46.5 28.09 35.35Z" fill="#FFFFFF" transform="matrix(1 0 -0 1 696 77.0001)"/></g></g></g><text font-family="Calibri,Calibri_MSFontService,sans-serif" font-weight="400" font-size="19" transform="matrix(1 0 0 1.00059 638.416 174)">AWS Lambda -<tspan x="113.697" y="0">Shortener</tspan><tspan x="-275.416" y="1.99883">Amazon API Gateway</tspan></text><g clip-path="url(#clip8)"><g clip-path="url(#clip9)"><g clip-path="url(#clip10)"><path d="M0 0 74.0001 0 74.0001 74.0001 0 74.0001Z" fill="url(#fill11)" transform="matrix(1.01351 0 -0 1 406 74.9999)"/><path d="M47.8632 60.68C47.6542 60.6808 47.4504 60.6151 47.2811 60.4926 47.0224 60.3084 46.8682 60.0109 46.8667 59.6934L46.8667 14.3067C46.8681 13.9638 47.0474 13.6463 47.3403 13.468 47.6367 13.2762 48.0129 13.2574 48.327 13.4187L61.1536 19.684C61.4893 19.8485 61.7032 20.1884 61.7062 20.5621L61.7062 55.431C61.7279 55.8758 61.449 56.2801 61.0254 56.4176L48.1987 60.68C48.0875 60.6961 47.9745 60.6961 47.8632 60.68ZM48.8499 15.8952 48.8499 58.3219 59.7032 54.7206 59.7032 21.1739Z" fill="#FFFFFF" transform="matrix(1.01351 0 -0 1 406 74.9999)"/><path d="M26.1467 60.68C26.0419 60.6943 25.9357 60.6943 25.831 60.68L13.0043 56.4176C12.5846 56.2766 12.3103 55.8731 12.3333 55.431L12.3333 20.5621C12.3363 20.1884 12.5502 19.8485 12.8859 19.684L25.7126 13.4187C26.0266 13.2574 26.4028 13.2762 26.6992 13.468 26.9883 13.6487 27.1636 13.9658 27.163 14.3067L27.163 59.6934C27.1615 60.0109 27.0073 60.3084 26.7486 60.4926 26.576 60.6234 26.363 60.6897 26.1467 60.68ZM14.3067 54.76 25.16 58.3614 25.16 15.9347 14.3067 21.2331Z" fill="#FFFFFF" transform="matrix(1.01351 0 -0 1 406 74.9999)"/><path d="M46.8667 27.1334 43.9067 27.1334 43.9067 25.16 46.8667 25.16ZM40.9467 27.1334 37.9867 27.1334 37.9867 25.16 40.9467 25.16ZM35.0267 27.1334 32.0667 27.1334 32.0667 25.16 35.0267 25.16ZM29.1067 27.1334 26.1467 27.1334 26.1467 25.16 29.1067 25.16Z" fill="#FFFFFF" transform="matrix(1.01351 0 -0 1 406 74.9999)"/><path d="M46.8667 48.84 43.9067 48.84 43.9067 46.8667 46.8667 46.8667ZM40.9467 48.84 37.9867 48.84 37.9867 46.8667 40.9467 46.8667ZM35.0267 48.84 32.0667 48.84 32.0667 46.8667 35.0267 46.8667ZM29.1067 48.84 26.1467 48.84 26.1467 46.8667 29.1067 46.8667Z" fill="#FFFFFF" transform="matrix(1.01351 0 -0 1 406 74.9999)"/><path d="M32.6686 40.3942 28.9587 37.227C28.5445 36.8728 28.4959 36.25 28.8501 35.8358 28.8834 35.7969 28.9197 35.7606 28.9587 35.7272L32.6587 32.56 33.9414 34.0598 31.1195 36.5067 33.9414 38.924Z" fill="#FFFFFF" transform="matrix(1.01351 0 -0 1 406 74.9999)"/><path d="M41.3414 40.3942 40.0587 38.8944 42.8806 36.5067 40.0488 34.0992 41.3315 32.56 45.0414 35.7174C45.4555 36.0715 45.5041 36.6943 45.15 37.1085 45.1167 37.1475 45.0803 37.1838 45.0414 37.2171Z" fill="#FFFFFF" transform="matrix(1.01351 0 -0 1 406 74.9999)"/><path d="M31.29 36.5 43.7 36.5 43.7 38.5 31.29 38.5Z" fill="#FFFFFF" transform="matrix(0.320282 -0.934692 0.947322 0.316012 395.96 135.187)"/></g></g></g><rect x="0" y="0" width="801" height="204.88" stroke="#000000" stroke-width="1.00004" stroke-miterlimit="8" fill="none" transform="matrix(1 0 -0 1.00059 331.5 11.5)"/><text font-family="Calibri,Calibri_MSFontService,sans-serif" font-weight="400" font-size="16" transform="matrix(1 0 0 1.00059 378.875 36)">AWS Cloud</text><g clip-path="url(#clip12)"><g clip-path="url(#clip13)"><g clip-path="url(#clip14)"><path d="M0 0 35 0 35 35 0 35Z" fill="#232F3E" transform="matrix(1 0 -0 1 331 11)"/><path d="M11.38 16.17C11.3716 16.4508 11.4087 16.7311 11.49 17 11.5703 17.2316 11.6707 17.4558 11.79 17.67 11.8326 17.732 11.8569 17.8048 11.86 17.88 11.8493 17.9971 11.7821 18.1017 11.68 18.16L11.09 18.55C11.0198 18.6001 10.9362 18.628 10.85 18.63 10.7425 18.6282 10.6407 18.581 10.57 18.5 10.4405 18.3702 10.3264 18.2259 10.23 18.07 10.14 17.91 10.05 17.73 9.94999 17.52 9.28525 18.3505 8.27366 18.8268 7.20999 18.81 6.52496 18.847 5.85407 18.6053 5.35 18.14 4.88058 17.6662 4.63355 17.0159 4.67 16.35 4.64545 15.6159 4.95422 14.9102 5.51 14.43 6.16169 13.922 6.97486 13.6663 7.79999 13.71 8.1346 13.7085 8.46886 13.7319 8.79999 13.78 9.14999 13.83 9.49999 13.9 9.86999 13.98L9.86999 13.3C9.92341 12.7649 9.76551 12.2302 9.42999 11.81 8.99764 11.4762 8.45314 11.3222 7.90999 11.38 7.57317 11.3816 7.23764 11.4218 6.91 11.5 6.56897 11.5809 6.23465 11.6879 5.91 11.82L5.58 11.94 5.44 11.94C5.3 11.94 5.24 11.84 5.24 11.65L5.24 11.19C5.23113 11.0799 5.25185 10.9694 5.3 10.87 5.3744 10.7845 5.46654 10.7163 5.57 10.67 5.9444 10.4899 6.33651 10.3491 6.74 10.25 7.2136 10.128 7.70094 10.0675 8.18999 10.07 9.07156 9.99315 9.94799 10.2661 10.63 10.83 11.1963 11.4517 11.4756 12.2825 11.4 13.12ZM7.59999 17.59C7.94056 17.5905 8.27873 17.533 8.59999 17.42 8.94217 17.3032 9.24629 17.0959 9.47999 16.82 9.63428 16.6531 9.74429 16.4503 9.79999 16.23 9.86461 15.965 9.89486 15.6927 9.88999 15.42L9.88999 15C9.59619 14.9389 9.29899 14.8955 8.99999 14.87 8.69999 14.87 8.40999 14.87 8.11999 14.87 7.63112 14.8308 7.14368 14.9615 6.74 15.24 6.4236 15.5063 6.25281 15.9073 6.28 16.32 6.24671 16.6864 6.37025 17.0498 6.62 17.32 6.89803 17.5362 7.25046 17.6333 7.59999 17.59ZM15.09 18.59C14.9632 18.6018 14.8363 18.57 14.73 18.5 14.6285 18.3989 14.5589 18.2703 14.53 18.13L12.35 10.93C12.3057 10.8077 12.2787 10.6798 12.27 10.55 12.27 10.4 12.34 10.32 12.49 10.32L13.41 10.32C13.5367 10.3082 13.6637 10.3399 13.77 10.41 13.8674 10.5126 13.9333 10.641 13.96 10.78L15.53 17 17 10.79C17.0153 10.6495 17.0789 10.5188 17.18 10.42 17.29 10.3499 17.4201 10.3183 17.55 10.33L18.3 10.33C18.433 10.3183 18.5663 10.3498 18.68 10.42 18.7738 10.5238 18.8362 10.6521 18.86 10.79L20.31 17 21.92 10.76C21.9466 10.621 22.0126 10.4926 22.11 10.39 22.2163 10.32 22.3432 10.2882 22.47 10.3L23.34 10.3C23.4554 10.2884 23.5584 10.3725 23.57 10.4879 23.5714 10.5019 23.5714 10.516 23.57 10.53 23.5737 10.5799 23.5737 10.6301 23.57 10.68 23.57 10.68 23.57 10.81 23.51 10.91L21.25 18.11C21.2233 18.2489 21.1574 18.3774 21.06 18.48 20.9525 18.5473 20.8265 18.5788 20.7 18.57L19.9 18.57C19.7685 18.584 19.6365 18.5483 19.53 18.47 19.4309 18.3698 19.3676 18.2398 19.35 18.1L17.9 12.1 16.46 18.1C16.4424 18.2398 16.3791 18.3698 16.28 18.47 16.1726 18.5466 16.0413 18.5821 15.91 18.57ZM27.09 18.83C26.6054 18.8323 26.1222 18.7786 25.65 18.67 25.2783 18.5954 24.9184 18.4709 24.58 18.3 24.4604 18.243 24.3597 18.1527 24.29 18.04 24.2511 17.9552 24.2307 17.8632 24.23 17.77L24.23 17.3C24.23 17.11 24.3 17.01 24.44 17.01 24.4996 17.0005 24.5604 17.0005 24.62 17.01L24.85 17.11C25.1705 17.2532 25.5059 17.3605 25.85 17.43 26.2147 17.5094 26.5868 17.5496 26.96 17.55 27.4337 17.5795 27.9058 17.4718 28.32 17.24 28.6261 17.0538 28.8092 16.7181 28.8 16.36 28.8096 16.1182 28.7191 15.8831 28.55 15.71 28.2793 15.4754 27.9573 15.3076 27.61 15.22L26.26 14.79C25.676 14.6432 25.154 14.3139 24.77 13.85 24.468 13.4607 24.3028 12.9827 24.3 12.49 24.2945 12.1405 24.3807 11.7958 24.55 11.49 24.7173 11.1895 24.9455 10.9272 25.22 10.72 25.5206 10.4992 25.8597 10.3364 26.22 10.24 26.6034 10.1295 27.001 10.0756 27.4 10.08 27.6064 10.0654 27.8136 10.0654 28.02 10.08L28.63 10.18 29.16 10.33 29.55 10.49C29.6546 10.5518 29.749 10.6294 29.83 10.72 29.8857 10.8136 29.9135 10.9211 29.91 11.03L29.91 11.47C29.91 11.67 29.84 11.77 29.7 11.77 29.5729 11.7554 29.4503 11.7146 29.34 11.65 28.7724 11.4033 28.1588 11.2806 27.54 11.29 27.1112 11.2692 26.6843 11.3587 26.3 11.55 26.0092 11.727 25.8399 12.0502 25.86 12.39 25.8591 12.639 25.9603 12.8776 26.14 13.05 26.4352 13.2862 26.7754 13.4598 27.14 13.56L28.46 13.98C29.0195 14.1284 29.5213 14.4421 29.9 14.88 30.1867 15.2558 30.3382 15.7174 30.33 16.19 30.3359 16.5638 30.2537 16.9338 30.09 17.27 29.9294 17.592 29.6967 17.8726 29.41 18.09 29.1133 18.3285 28.7739 18.5084 28.41 18.62 27.9735 18.7603 27.5184 18.8345 27.06 18.84Z" fill="#FFFFFF" transform="matrix(1 0 -0 1 331 11)"/><path d="M28.82 23.43C25.473 25.7044 21.5166 26.914 17.47 26.9 12.3536 26.9276 7.41113 25.0448 3.61 21.62 3.32 21.36 3.61 21 3.93 21.2 8.14885 23.6172 12.9277 24.886 17.79 24.88 21.4246 24.8652 25.0204 24.1311 28.37 22.72 28.89 22.5 29.33 23.06 28.82 23.43Z" fill="#FFFFFF" fill-rule="evenodd" transform="matrix(1 0 -0 1 331 11)"/><path d="M30.1 22C29.7 21.49 27.5 21.76 26.51 21.88 26.21 21.88 26.17 21.65 26.44 21.46 28.19 20.23 31.07 20.58 31.44 21 31.81 21.42 31.35 24.3 29.7 25.68 29.45 25.89 29.21 25.77 29.32 25.5 29.66 24.55 30.49 22.48 30.1 22Z" fill="#FFFFFF" fill-rule="evenodd" transform="matrix(1 0 -0 1 331 11)"/></g></g></g><text font-family="Calibri,Calibri_MSFontService,sans-serif" font-weight="400" font-size="19" transform="matrix(1 0 0 1.00059 947.49 174)">Amazon DynamoDB</text><g clip-path="url(#clip15)"><g clip-path="url(#clip16)"><g clip-path="url(#clip17)"><path d="M0 0 74.9999 0 74.9999 74.9999 0 74.9999Z" fill="url(#fill18)" transform="matrix(1 0 -0 1 985 77.0001)"/><path d="M50.25 40.48 43.64 47.08C44.8291 46.7482 45.9765 46.2819 47.06 45.69 47.7005 46.0873 48.1353 46.7449 48.25 47.49 48.25 49.32 44.37 51.31 38.61 52.12 36.8332 52.3603 35.0429 52.4872 33.25 52.5L32.25 52.5C24.17 52.31 18.25 49.76 18.25 47.5 18.3647 46.7549 18.7994 46.0973 19.44 45.7 22.58 47.45 27.67 48.49 33.25 48.49L33.36 48.49 33.92 46.49C33.7 46.49 33.48 46.49 33.25 46.49 27.75 46.49 22.65 45.4 19.94 43.68 18.86 42.97 18.26 42.2 18.25 41.53L18.25 36.9C21.31 39.24 27.41 40.46 33.25 40.46 34.04 40.46 34.83 40.46 35.6 40.39L36.17 38.39C35.17 38.46 34.24 38.49 33.25 38.49 24.67 38.49 18.25 35.86 18.25 33.49 18.3647 32.7449 18.7994 32.0873 19.44 31.69 22.2 33.24 26.44 34.21 31.25 34.43L31.3 32.43C26.57 32.2 22.3 31.18 19.94 29.67 18.87 28.98 18.27 28.2 18.25 27.52L18.25 22.9C21.31 25.24 27.41 26.46 33.25 26.46L33.47 26.46 34.53 24.46 33.25 24.46C24.67 24.46 18.25 21.83 18.25 19.46 18.25 17.09 24.67 14.46 33.25 14.46 36.1397 14.4477 39.0205 14.7835 41.83 15.46L47.32 15.46C44.32 13.63 39.14 12.46 33.25 12.46 25.01 12.46 16.25 14.9 16.25 19.46L16.25 27.51C16.3108 28.6633 16.86 29.7362 17.76 30.46 16.8483 31.196 16.298 32.2892 16.25 33.46L16.25 41.46C16.2967 42.631 16.8472 43.7248 17.76 44.46 16.8483 45.196 16.298 46.2892 16.25 47.46L16.25 55.46C16.2441 55.5298 16.2441 55.6001 16.25 55.67 16.52 60.06 25.12 62.42 33.25 62.42 41.38 62.42 49.98 60.06 50.25 55.65 50.2598 55.5803 50.2598 55.5096 50.25 55.44L50.25 47.44C50.2112 46.2669 49.6591 45.17 48.74 44.44 49.6527 43.7048 50.2032 42.611 50.25 41.44ZM48.25 55.48C48.25 57.84 41.83 60.48 33.25 60.48 24.67 60.48 18.25 57.87 18.25 55.48L18.25 50.88C21.31 53.2 27.41 54.42 33.25 54.42 39.09 54.42 45.19 53.2 48.25 50.88Z" fill="#FFFFFF" transform="matrix(1 0 -0 1 985 77.0001)"/><path d="M22.5 27.52C22.5 28.2103 21.9403 28.77 21.25 28.77 20.5596 28.77 20 28.2103 20 27.52 20 26.8296 20.5596 26.27 21.25 26.27 21.9403 26.27 22.5 26.8296 22.5 27.52Z" fill="#FFFFFF" transform="matrix(1 0 -0 1 985 77.0001)"/><path d="M22.5 41.52C22.5 42.2103 21.9403 42.77 21.25 42.77 20.5596 42.77 20 42.2103 20 41.52 20 40.8296 20.5596 40.27 21.25 40.27 21.9403 40.27 22.5 40.8296 22.5 41.52Z" fill="#FFFFFF" transform="matrix(1 0 -0 1 985 77.0001)"/><path d="M22.5 55.52C22.5 56.2103 21.9403 56.77 21.25 56.77 20.5596 56.77 20 56.2103 20 55.52 20 54.8296 20.5596 54.27 21.25 54.27 21.9403 54.27 22.5 54.8296 22.5 55.52Z" fill="#FFFFFF" transform="matrix(1 0 -0 1 985 77.0001)"/><path d="M35.75 51.48C35.5739 51.4781 35.4014 51.4298 35.25 51.34 34.8491 51.1091 34.6589 50.6336 34.79 50.19L40.41 31.48 34.75 31.48C34.1977 31.487 33.7443 31.0451 33.7373 30.4928 33.7351 30.3207 33.7773 30.151 33.86 30L39.86 18C40.0294 17.6637 40.3734 17.4511 40.75 17.45L53.75 17.45C54.3016 17.4226 54.771 17.8475 54.7984 18.3991 54.8045 18.5213 54.7881 18.6437 54.75 18.76L52.19 26.45 57.8 26.45C58.3522 26.4521 58.7982 26.9015 58.7961 27.4538 58.7952 27.7094 58.6963 27.955 58.52 28.14L36.52 51.14C36.3258 51.3611 36.0442 51.4854 35.75 51.48ZM36.37 29.48 41.75 29.48C42.0647 29.48 42.3611 29.6282 42.55 29.88 42.7388 30.1318 42.7981 30.4578 42.71 30.76L37.9 46.76 55.41 28.46 50.75 28.46C50.1985 28.4893 49.7276 28.066 49.6983 27.5144 49.6916 27.3875 49.7091 27.2604 49.75 27.14L52.31 19.46 41.31 19.46Z" fill="#FFFFFF" transform="matrix(1 0 -0 1 985 77.0001)"/></g></g></g><path d="M3.23437e-07-0.500021 161.573-0.499916 161.573 0.500125-3.23437e-07 0.500021ZM156.565-5.04356 162.329 0.000104781 156.565 5.04376C156.357 5.22561 156.041 5.20455 155.859 4.99672 155.677 4.78889 155.698 4.473 155.906 4.29115L161.24-0.3762 161.24 0.376408 155.906-4.29095C155.698-4.4728 155.677-4.78869 155.859-4.99652 156.041-5.20434 156.357-5.2254 156.565-5.04356Z" fill="#44546A" transform="matrix(1 0 -0 1.00059 796.5 87.5)"/><path d="M3.23437e-07-0.500021 161.573-0.499916 161.573 0.500125-3.23437e-07 0.500021ZM156.565-5.04356 162.329 0.000104781 156.565 5.04376C156.357 5.22561 156.041 5.20455 155.859 4.99672 155.677 4.78889 155.698 4.473 155.906 4.29115L161.24-0.3762 161.24 0.376408 155.906-4.29095C155.698-4.4728 155.677-4.78869 155.859-4.99652 156.041-5.20434 156.357-5.2254 156.565-5.04356Z" fill="#44546A" transform="matrix(-1 -8.74228e-08 -8.74742e-08 1.00059 958.83 114.5)"/><path d="M3.23437e-07-0.500021 161.573-0.499916 161.573 0.500125-3.23437e-07 0.500021ZM156.565-5.04356 162.329 0.000104781 156.565 5.04376C156.357 5.22561 156.041 5.20455 155.859 4.99672 155.677 4.78889 155.698 4.473 155.906 4.29115L161.24-0.3762 161.24 0.376408 155.906-4.29095C155.698-4.4728 155.677-4.78869 155.859-4.99652 156.041-5.20434 156.357-5.2254 156.565-5.04356Z" fill="#44546A" transform="matrix(1 0 -0 1.00059 796.5 140.5)"/><path d="M3.23437e-07-0.500021 161.573-0.499916 161.573 0.500125-3.23437e-07 0.500021ZM156.565-5.04356 162.329 0.000104781 156.565 5.04376C156.357 5.22561 156.041 5.20455 155.859 4.99672 155.677 4.78889 155.698 4.473 155.906 4.29115L161.24-0.3762 161.24 0.376408 155.906-4.29095C155.698-4.4728 155.677-4.78869 155.859-4.99652 156.041-5.20434 156.357-5.2254 156.565-5.04356Z" fill="#44546A" transform="matrix(1 0 -0 1.00059 508.5 110.5)"/><path d="M3.23437e-07-0.500021 161.573-0.499916 161.573 0.500125-3.23437e-07 0.500021ZM156.565-5.04356 162.329 0.000104781 156.565 5.04376C156.357 5.22561 156.041 5.20455 155.859 4.99672 155.677 4.78889 155.698 4.473 155.906 4.29115L161.24-0.3762 161.24 0.376408 155.906-4.29095C155.698-4.4728 155.677-4.78869 155.859-4.99652 156.041-5.20434 156.357-5.2254 156.565-5.04356Z" fill="#44546A" transform="matrix(-1 -8.74228e-08 -8.74742e-08 1.00059 670.83 137.5)"/><path d="M4.1645e-07-0.500021 125.313-0.499917 125.313 0.500125-4.1645e-07 0.500021ZM120.309-5.04356 126.073 0.00010467 120.309 5.04376C120.101 5.22561 119.785 5.20455 119.603 4.99672 119.421 4.78889 119.442 4.473 119.65 4.29115L124.984-0.3762 124.984 0.376408 119.65-4.29095C119.442-4.4728 119.421-4.78869 119.603-4.99652 119.785-5.20435 120.101-5.22541 120.309-5.04356Z" fill="#44546A" transform="matrix(1 0 -0 1.00059 269.5 110.5)"/><path d="M4.1645e-07-0.500021 125.313-0.499917 125.313 0.500125-4.1645e-07 0.500021ZM120.309-5.04356 126.073 0.00010467 120.309 5.04376C120.101 5.22561 119.785 5.20455 119.603 4.99672 119.421 4.78889 119.442 4.473 119.65 4.29115L124.984-0.3762 124.984 0.376408 119.65-4.29095C119.442-4.4728 119.421-4.78869 119.603-4.99652 119.785-5.20435 120.101-5.22541 120.309-5.04356Z" fill="#44546A" transform="matrix(-1 -8.74228e-08 -8.74742e-08 1.00059 395.574 137.5)"/><g clip-path="url(#clip19)"><g clip-path="url(#clip20)"><g clip-path="url(#clip21)"><path d="M87.875 69.375 23.125 69.375 23.125 30.0625 87.875 30.0625ZM94.8125 27.75C94.8125 25.1957 92.7418 23.125 90.1875 23.125L20.8125 23.125C18.2582 23.125 16.1875 25.1957 16.1875 27.75L16.1875 76.3125 94.8125 76.3125Z" transform="matrix(1.00901 0 -0 1 147 59)"/><path d="M62.4375 80.9375 62.4375 82.0938C62.4772 82.6927 62.0237 83.2104 61.4248 83.25 61.377 83.2531 61.329 83.2531 61.2813 83.25L49.7188 83.25C49.1198 83.2897 48.6022 82.8362 48.5625 82.2373 48.5594 82.1895 48.5594 82.1415 48.5625 82.0938L48.5625 80.9375 2.3125 80.9375 2.3125 83.25C2.3125 85.8043 4.38318 87.875 6.9375 87.875L104.063 87.875C106.617 87.875 108.688 85.8043 108.688 83.25L108.688 80.9375Z" transform="matrix(1.00901 0 -0 1 147 59)"/><path d="M55.5 33.5313C46.5599 33.5313 39.3125 40.7786 39.3125 49.7188 39.3125 58.6589 46.5599 65.9063 55.5 65.9063 64.4401 65.9063 71.6875 58.6589 71.6875 49.7188 71.6875 40.7786 64.4401 33.5313 55.5 33.5313ZM56.6563 50.875 61.9635 50.875C61.3591 54.8611 59.5001 58.5508 56.6563 61.4085ZM56.6563 48.5625 56.6563 38.0175C59.503 40.8778 61.3622 44.5721 61.9635 48.5625ZM54.3438 48.5625 49.21 48.5625C49.785 44.6404 51.5814 40.9992 54.3438 38.1563ZM54.3438 50.875 54.3438 61.2813C51.5866 58.4346 49.791 54.7953 49.21 50.875ZM46.8859 48.5625 41.9372 48.5625C42.4505 42.5061 46.9209 37.526 52.8869 36.3641 49.5906 39.6533 47.4799 43.9439 46.8859 48.5625ZM46.8859 50.875C47.4804 55.5016 49.6001 59.7981 52.91 63.085 46.9351 61.9239 42.4558 56.9395 41.9372 50.875ZM64.2875 50.875 69.0628 50.875C68.5565 56.8628 64.18 61.8082 58.2981 63.0388 61.5926 59.7638 63.7004 55.4831 64.2875 50.875ZM64.2875 48.5625C63.6956 43.9664 61.6022 39.6944 58.3328 36.4103 64.1972 37.6531 68.5558 42.5894 69.0628 48.5625Z" transform="matrix(1.00901 0 -0 1 147 59)"/></g></g></g><text font-family="Calibri,Calibri_MSFontService,sans-serif" font-weight="400" font-size="19" transform="matrix(1 0 0 1.00059 133.91 176)">https://beano.dev<tspan x="683.395" y="-95.9436">Query for URL</tspan><tspan x="699.729" y="-69.9589">Return URL</tspan><tspan x="684.557" y="-43.9742">Increment uses</tspan><tspan x="395.371" y="-74.9559">Invoke Function</tspan><tspan x="413.964" y="-46.9724">Return 301</tspan><tspan x="198.745" y="-44.9736">Redirect</tspan></text><path d="M9.15493e-07-0.500021 56.5898-0.499917 56.5898 0.500125-9.15493e-07 0.500021ZM51.585-5.04356 57.3491 0.000104964 51.585 5.04375C51.3771 5.2256 51.0612 5.20454 50.8794 4.99671 50.6975 4.78888 50.7186 4.47299 50.9264 4.29114L56.2605-0.376201 56.2605 0.376407 50.9264-4.29096C50.7186-4.4728 50.6976-4.7887 50.8794-4.99653 51.0612-5.20435 51.3771-5.22541 51.585-5.04356Z" fill="#44546A" transform="matrix(-1 -8.74228e-08 -8.74742e-08 1.00059 141.85 137.5)"/><path d="M9.15493e-07-0.500021 56.5898-0.499917 56.5898 0.500125-9.15493e-07 0.500021ZM51.585-5.04356 57.3491 0.000104964 51.585 5.04375C51.3771 5.2256 51.0612 5.20454 50.8794 4.99671 50.6975 4.78888 50.7186 4.47299 50.9264 4.29114L56.2605-0.376201 56.2605 0.376407 50.9264-4.29096C50.7186-4.4728 50.6976-4.7887 50.8794-4.99653 51.0612-5.20435 51.3771-5.22541 51.585-5.04356Z" fill="#44546A" transform="matrix(1 0 -0 1.00059 84.5 110.5)"/><text font-family="Calibri,Calibri_MSFontService,sans-serif" font-weight="400" font-size="19" transform="matrix(1 0 0 1.00059 99.7823 130)">301<tspan x="-0.520973" y="-23.9859">GET</tspan><tspan x="232.975" y="-28.983">Forward</tspan></text></g></svg>