<svg width="756" height="491" xmlns="http://www.w3.org/2000/svg" xmlns:xlink="http://www.w3.org/1999/xlink" overflow="hidden"><defs><clipPath id="clip0"><path d="M0 0 756 0 756 491 0 491Z" fill-rule="evenodd" clip-rule="evenodd"/></clipPath><clipPath id="clip1"><path d="M172 122 206 122 206 157 172 157Z" fill-rule="evenodd" clip-rule="evenodd"/></clipPath><clipPath id="clip2"><path d="M172 122 206 122 206 157 172 157Z" fill-rule="evenodd" clip-rule="evenodd"/></clipPath><clipPath id="clip3"><path d="M172 122 206 122 206 157 172 157Z" fill-rule="evenodd" clip-rule="evenodd"/></clipPath><clipPath id="clip4"><path d="M555 6 653 6 653 103 555 103Z" fill-rule="evenodd" clip-rule="evenodd"/></clipPath><clipPath id="clip5"><path d="M555 6 653 6 653 103 555 103Z" fill-rule="evenodd" clip-rule="evenodd"/></clipPath><clipPath id="clip6"><path d="M555 6 653 6 653 103 555 103Z" fill-rule="evenodd" clip-rule="evenodd"/></clipPath><clipPath id="clip7"><path d="M25 248 76 248 76 299 25 299Z" fill-rule="evenodd" clip-rule="evenodd"/></clipPath><clipPath id="clip8"><path d="M25 248 76 248 76 299 25 299Z" fill-rule="evenodd" clip-rule="evenodd"/></clipPath><clipPath id="clip9"><path d="M25 248 76 248 76 299 25 299Z" fill-rule="evenodd" clip-rule="evenodd"/></clipPath><clipPath id="clip10"><path d="M289 347 365 347 365 423 289 423Z" fill-rule="evenodd" clip-rule="evenodd"/></clipPath><clipPath id="clip11"><path d="M289 347 365 347 365 423 289 423Z" fill-rule="evenodd" clip-rule="evenodd"/></clipPath><clipPath id="clip12"><path d="M289 347 365 347 365 423 289 423Z" fill-rule="evenodd" clip-rule="evenodd"/></clipPath><linearGradient x1="-15.3229" y1="89.326" x2="89.3289" y2="-15.3259" gradientUnits="userSpaceOnUse" spreadMethod="pad" id="fill13"><stop offset="0" stop-color="#4D27A8"/><stop offset="1" stop-color="#A166FF"/></linearGradient><clipPath id="clip14"><path d="M289 167 365 167 365 243 289 243Z" fill-rule="evenodd" clip-rule="evenodd"/></clipPath><clipPath id="clip15"><path d="M289 167 365 167 365 243 289 243Z" fill-rule="evenodd" clip-rule="evenodd"/></clipPath><clipPath id="clip16"><path d="M289 167 365 167 365 243 289 243Z" fill-rule="evenodd" clip-rule="evenodd"/></clipPath><linearGradient x1="-15.3328" y1="89.3328" x2="89.323" y2="-15.3229" gradientUnits="userSpaceOnUse" spreadMethod="pad" id="fill17"><stop offset="0" stop-color="#4D27A8"/><stop offset="1" stop-color="#A166FF"/></linearGradient><clipPath id="clip18"><path d="M565 167 642 167 642 243 565 243Z" fill-rule="evenodd" clip-rule="evenodd"/></clipPath><clipPath id="clip19"><path d="M565 167 642 167 642 243 565 243Z" fill-rule="evenodd" clip-rule="evenodd"/></clipPath><clipPath id="clip20"><path d="M565 167 642 167 642 243 565 243Z" fill-rule="evenodd" clip-rule="evenodd"/></clipPath><linearGradient x1="-15.3259" y1="89.323" x2="89.326" y2="-15.3289" gradientUnits="userSpaceOnUse" spreadMethod="pad" id="fill21"><stop offset="0" stop-color="#C8511B"/><stop offset="1" stop-color="#FF9900"/></linearGradient><clipPath id="clip22"><path d="M565 347 642 347 642 423 565 423Z" fill-rule="evenodd" clip-rule="evenodd"/></clipPath><clipPath id="clip23"><path d="M565 347 642 347 642 423 565 423Z" fill-rule="evenodd" clip-rule="evenodd"/></clipPath><clipPath id="clip24"><path d="M565 347 642 347 642 423 565 423Z" fill-rule="evenodd" clip-rule="evenodd"/></clipPath><linearGradient x1="-15.3229" y1="89.323" x2="89.323" y2="-15.3229" gradientUnits="userSpaceOnUse" spreadMethod="pad" id="fill25"><stop offset="0" stop-color="#2E27AD"/><stop offset="1" stop-color="#527FFF"/></linearGradient></defs><g clip-path="url(#clip0)"><rect x="0" y="0" width="755.32" height="491" fill="#FFFFFF" transform="scale(1.0009 1)"/><rect x="0" y="0" width="551.504" height="351" stroke="#000000" stroke-miterlimit="8" fill="none" transform="matrix(1.0009 0 -0 1 172.5 122.5)"/><text font-family="Calibri,Calibri_MSFontService,sans-serif" font-weight="400" font-size="16" transform="matrix(1 0 0 0.999101 219.59 146)">AWS Cloud</text><g clip-path="url(#clip1)"><g clip-path="url(#clip2)"><g clip-path="url(#clip3)"><path d="M0 0 33.9999 0 33.9999 33.9999 0 33.9999Z" fill="#232F3E" transform="matrix(1 0 -0 1.02941 172 122)"/><path d="M11.0548 15.708C11.0467 15.9807 11.0828 16.253 11.1617 16.5143 11.2397 16.7393 11.3373 16.957 11.4531 17.1651 11.4945 17.2254 11.5181 17.2961 11.5211 17.3691 11.5108 17.4829 11.4455 17.5845 11.3463 17.6411L10.7731 18.02C10.705 18.0687 10.6237 18.0957 10.54 18.0977 10.4355 18.096 10.3367 18.0501 10.268 17.9714 10.1422 17.8453 10.0313 17.7052 9.9377 17.5537 9.85027 17.3983 9.76284 17.2234 9.6657 17.0194 9.01995 17.8262 8.03726 18.2889 7.00399 18.2725 6.33852 18.3085 5.68681 18.0737 5.19713 17.6217 4.74113 17.1614 4.50116 16.5297 4.53656 15.8828 4.51272 15.1697 4.81267 14.4841 5.35256 14.0177 5.98563 13.5242 6.77557 13.2758 7.57713 13.3183 7.90218 13.3168 8.22688 13.3395 8.54856 13.3863 8.88855 13.4348 9.22855 13.5028 9.58798 13.5805L9.58798 12.92C9.63988 12.4002 9.48648 11.8807 9.16055 11.4726 8.74055 11.1483 8.21161 10.9987 7.68399 11.0548 7.35678 11.0564 7.03084 11.0955 6.71256 11.1714 6.38127 11.25 6.05651 11.3539 5.74113 11.4823L5.42056 11.5988 5.28456 11.5988C5.14856 11.5988 5.09028 11.5017 5.09028 11.3171L5.09028 10.8703C5.08167 10.7633 5.10179 10.656 5.14856 10.5594 5.22084 10.4764 5.31034 10.4101 5.41085 10.3651 5.77456 10.1901 6.15546 10.0534 6.54742 9.95712 7.00749 9.83865 7.48091 9.77988 7.95599 9.78227 8.81237 9.70762 9.66375 9.9728 10.3263 10.5206 10.8764 11.1245 11.1477 11.9315 11.0743 12.7451ZM7.38284 17.0874C7.71368 17.0879 8.04218 17.032 8.35427 16.9223 8.68667 16.8088 8.9821 16.6074 9.20913 16.3394 9.359 16.1773 9.46587 15.9803 9.51998 15.7663 9.58275 15.5088 9.61214 15.2444 9.60741 14.9794L9.60741 14.5714C9.322 14.5121 9.03329 14.4699 8.74284 14.4451 8.45141 14.4451 8.1697 14.4451 7.88799 14.4451 7.41308 14.407 6.93957 14.534 6.54742 14.8045 6.24006 15.0633 6.07415 15.4528 6.10056 15.8537 6.06822 16.2096 6.18824 16.5626 6.43085 16.8251 6.70093 17.0351 7.0433 17.1295 7.38284 17.0874ZM14.6588 18.0588C14.5357 18.0703 14.4124 18.0394 14.3091 17.9714 14.2105 17.8732 14.1429 17.7482 14.1148 17.612L11.9971 10.6177C11.9541 10.4989 11.9279 10.3746 11.9194 10.2486 11.9194 10.1028 11.9874 10.0251 12.1331 10.0251L13.0268 10.0251C13.15 10.0137 13.2733 10.0445 13.3765 10.1126 13.4712 10.2123 13.5352 10.337 13.5611 10.472L15.0863 16.5143 16.5143 10.4817C16.5292 10.3453 16.591 10.2182 16.6891 10.1223 16.796 10.0542 16.9224 10.0235 17.0485 10.0348L17.7771 10.0348C17.9064 10.0235 18.0358 10.0541 18.1463 10.1223 18.2373 10.2231 18.298 10.3478 18.3211 10.4817L19.7297 16.5143 21.2937 10.4526C21.3196 10.3176 21.3836 10.1928 21.4782 10.0931 21.5815 10.0251 21.7048 9.99425 21.828 10.0057L22.6731 10.0057C22.7852 9.9944 22.8852 10.0761 22.8965 10.1882 22.8979 10.2018 22.8979 10.2155 22.8965 10.2291 22.9002 10.2776 22.9002 10.3263 22.8965 10.3748 22.8965 10.3748 22.8965 10.5011 22.8382 10.5983L20.6428 17.5925C20.6169 17.7275 20.5529 17.8523 20.4582 17.952 20.3538 18.0173 20.2314 18.0479 20.1085 18.0394L19.3314 18.0394C19.2037 18.053 19.0755 18.0183 18.972 17.9423 18.8757 17.845 18.8142 17.7186 18.7971 17.5828L17.3885 11.7543 15.9897 17.5828C15.9726 17.7186 15.9111 17.845 15.8148 17.9423 15.7105 18.0167 15.583 18.0512 15.4554 18.0394ZM26.316 18.292C25.8452 18.2942 25.3758 18.2421 24.9171 18.1365 24.556 18.0641 24.2064 17.9432 23.8777 17.7771 23.7615 17.7217 23.6637 17.634 23.596 17.5245 23.5582 17.4422 23.5384 17.3528 23.5377 17.2623L23.5377 16.8057C23.5377 16.6211 23.6057 16.524 23.7417 16.524 23.7996 16.5147 23.8586 16.5147 23.9165 16.524L24.14 16.6211C24.4513 16.7602 24.7771 16.8645 25.1114 16.932 25.4656 17.0091 25.8271 17.0482 26.1897 17.0485 26.6498 17.0772 27.1085 16.9726 27.5108 16.7474 27.8081 16.5665 27.986 16.2404 27.9771 15.8925 27.9864 15.6576 27.8986 15.4292 27.7342 15.2611 27.4713 15.0332 27.1585 14.8702 26.8211 14.7851L25.5097 14.3674C24.9423 14.2248 24.4353 13.9049 24.0622 13.4543 23.7689 13.0761 23.6084 12.6117 23.6057 12.1331 23.6004 11.7937 23.6841 11.4587 23.8485 11.1617 24.011 10.8698 24.2327 10.615 24.4994 10.4137 24.7914 10.1992 25.1208 10.0411 25.4708 9.94741 25.8433 9.84009 26.2295 9.78773 26.6171 9.79198 26.8176 9.77782 27.0189 9.77782 27.2194 9.79198L27.8119 9.88912 28.3268 10.0348 28.7057 10.1903C28.8073 10.2503 28.899 10.3257 28.9777 10.4137 29.0318 10.5046 29.0588 10.6091 29.0554 10.7148L29.0554 11.1423C29.0554 11.3366 28.9874 11.4337 28.8514 11.4337 28.728 11.4196 28.6089 11.3799 28.5017 11.3171 27.9503 11.0775 27.3542 10.9583 26.7531 10.9674 26.3366 10.9472 25.9218 11.0342 25.5485 11.22 25.266 11.3919 25.1016 11.7058 25.1211 12.036 25.1202 12.2779 25.2185 12.5096 25.3931 12.6771 25.6798 12.9066 26.0104 13.0752 26.3645 13.1725L27.6468 13.5805C28.1904 13.7248 28.6778 14.0294 29.0457 14.4548 29.3242 14.8199 29.4713 15.2683 29.4634 15.7274 29.4692 16.0906 29.3893 16.45 29.2302 16.7765 29.0742 17.0893 28.8482 17.3619 28.5697 17.5731 28.2815 17.8048 27.9518 17.9795 27.5982 18.088 27.1742 18.2243 26.7322 18.2963 26.2868 18.3017Z" fill="#FFFFFF" transform="matrix(1 0 -0 1.02941 172 122)"/><path d="M27.9965 22.7605C24.7452 24.97 20.9018 26.145 16.9708 26.1314 12.0007 26.1583 7.19938 24.3292 3.50685 21.0022 3.22514 20.7497 3.50685 20.4 3.81771 20.5942 7.91602 22.9424 12.5584 24.175 17.2817 24.1691 20.8125 24.1547 24.3055 23.4416 27.5594 22.0708 28.0645 21.8571 28.4919 22.4011 27.9965 22.7605Z" fill="#FFFFFF" fill-rule="evenodd" transform="matrix(1 0 -0 1.02941 172 122)"/><path d="M29.2399 21.3714C28.8514 20.876 26.7142 21.1382 25.7525 21.2548 25.4611 21.2548 25.4222 21.0314 25.6845 20.8468 27.3845 19.652 30.1822 19.992 30.5417 20.4 30.9011 20.808 30.4542 23.6057 28.8514 24.9462 28.6085 25.1502 28.3754 25.0337 28.4822 24.7714 28.8125 23.8485 29.6188 21.8377 29.2399 21.3714Z" fill="#FFFFFF" fill-rule="evenodd" transform="matrix(1 0 -0 1.02941 172 122)"/></g></g></g><g clip-path="url(#clip4)"><g clip-path="url(#clip5)"><g clip-path="url(#clip6)"><path d="M48 80C30.4 80 16 65.6 16 48 16 30.4 30.4 16 48 16 65.6 16 80 30.4 80 48 80 65.6 65.6 80 48 80ZM48 10C27 10 10 27 10 48 10 69 27 86 48 86 69 86 86 69 86 48 86 27 69 10 48 10Z" transform="matrix(1 0 -0 1 556 6.99997)"/><path d="M50 28 46 28 46 48C46 48.6 46.2 49.1 46.6 49.4L60.7 63.5 63.5 60.7 50 47.2 50 28Z" transform="matrix(1 0 -0 1 556 6.99997)"/><path d="M50 22C50 23.1046 49.1046 24 48 24 46.8954 24 46 23.1046 46 22 46 20.8954 46.8954 20 48 20 49.1046 20 50 20.8954 50 22Z" transform="matrix(1 0 -0 1 556 6.99997)"/><path d="M50 74C50 75.1046 49.1046 76 48 76 46.8954 76 46 75.1046 46 74 46 72.8954 46.8954 72 48 72 49.1046 72 50 72.8954 50 74Z" transform="matrix(1 0 -0 1 556 6.99997)"/><path d="M24 48C24 49.1046 23.1046 50 22 50 20.8954 50 20 49.1046 20 48 20 46.8954 20.8954 46 22 46 23.1046 46 24 46.8954 24 48Z" transform="matrix(1 0 -0 1 556 6.99997)"/><path d="M76 48C76 49.1046 75.1046 50 74 50 72.8954 50 72 49.1046 72 48 72 46.8954 72.8954 46 74 46 75.1046 46 76 46.8954 76 48Z" transform="matrix(1 0 -0 1 556 6.99997)"/></g></g></g><g clip-path="url(#clip7)"><g clip-path="url(#clip8)"><g clip-path="url(#clip9)"><path d="M38.612 38.6022 33.712 38.6022 33.712 36.6422 38.612 36.6422C43.2964 36.6422 45.57 34.5646 45.57 30.3016 45.57 26.656 43.4238 24.3726 39.1902 23.5102 38.7547 23.4221 38.4329 23.0521 38.4062 22.6086 38.2004 19.0708 36.1424 17.8066 34.4862 17.8066 33.3254 17.8181 32.2371 18.3732 31.5462 19.306 31.2165 19.7352 30.6012 19.8158 30.172 19.486 30.0263 19.3741 29.915 19.2234 29.8508 19.0512 29.2541 17.3438 28.2754 15.7952 26.9892 14.5236 23.9667 11.4901 19.3989 10.6083 15.4644 12.299 11.9009 13.9303 9.55889 17.4282 9.408 21.3444 9.40987 21.7442 9.43605 22.1434 9.4864 22.54 9.55096 23.0339 9.23476 23.4977 8.7514 23.618 6.7914 24.108 3.43 25.578 3.43 30.2036 3.43 30.3702 3.43 30.5172 3.43 30.674 3.626 34.1334 6.5464 36.6226 10.3782 36.6226L15.2782 36.6226 15.2782 38.5826 10.3782 38.5826C5.4782 38.5826 1.7346 35.3192 1.4798 30.821 1.4798 30.5858 1.4798 30.3996 1.4798 30.2036 1.32854 26.3966 3.80953 22.9832 7.4774 21.952 7.4774 21.7462 7.4774 21.5306 7.4774 21.3248 7.62148 14.6096 13.182 9.2826 19.8973 9.42667 23.0837 9.49504 26.1159 10.8115 28.3416 13.0928 29.4918 14.2199 30.4252 15.5486 31.0954 17.0128 32.0643 16.2656 33.2528 15.8591 34.4764 15.8564 37.0734 15.8564 39.7978 17.689 40.3564 21.7364 45.0212 22.9222 47.5888 25.9308 47.5888 30.2918 47.53 35.6524 44.3646 38.6022 38.612 38.6022ZM28.175 38.6022 20.825 38.6022 20.825 36.6422 28.175 36.6422Z" fill="#232F3E" transform="matrix(1 0 -0 1 26 249)"/><path d="M30.9288 37.681C30.6717 37.6799 30.4253 37.5779 30.2428 37.3968L24.7254 31.8892 26.1072 30.4976 30.9288 35.28 35.7504 30.4584 37.1322 31.85 31.6246 37.3576C31.4463 37.5555 31.1951 37.6723 30.9288 37.681Z" fill="#232F3E" transform="matrix(1 0 -0 1 26 249)"/><path d="M29.9488 22.001 31.9088 22.001 31.9088 35.7798 29.9488 35.7798Z" fill="#232F3E" transform="matrix(1 0 -0 1 26 249)"/><path d="M22.8928 28.2142 18.0712 23.3926 13.2496 28.2142 11.8678 26.8226 17.3754 21.315C17.7576 20.935 18.375 20.935 18.7572 21.315L24.2746 26.8226Z" fill="#232F3E" transform="matrix(1 0 -0 1 26 249)"/><path d="M17.0912 22.001 19.0512 22.001 19.0512 38.5434 17.0912 38.5434Z" fill="#232F3E" transform="matrix(1 0 -0 1 26 249)"/></g></g></g><text fill="#232F3E" font-family="Calibri,Calibri_MSFontService,sans-serif" font-weight="400" font-size="19" transform="matrix(1 0 0 0.999101 19.7571 326)">Internet<tspan fill="#000000" x="240.59" y="125.112">Amazon Route 53</tspan></text><g clip-path="url(#clip10)"><g clip-path="url(#clip11)"><g clip-path="url(#clip12)"><path d="M0 0 74 0 74 74 0 74Z" fill="url(#fill13)" transform="matrix(1 0 -0 1 290 348)"/><path d="M26.9261 42.3675C28.1702 42.8084 29.4748 43.0547 30.7939 43.0976 31.6413 43.1666 32.4853 42.9285 33.1718 42.4267 33.7232 41.9224 34.023 41.1999 33.9907 40.4534 34.0633 39.6756 33.7805 38.9068 33.2211 38.3616 32.4773 37.8646 31.5866 37.6349 30.6952 37.7104 29.64 37.72 28.5861 37.7858 27.5379 37.9078L27.5379 36.5067 27.9227 30.419 35.3523 30.419 35.3523 32.0667 29.6 32.0667 29.3336 36.2008C29.9841 36.0757 30.6446 36.0096 31.3069 36.0035 32.5608 35.9293 33.7947 36.3429 34.7504 37.1579 35.6002 37.9978 36.0492 39.1617 35.9838 40.3547 36.0279 41.595 35.4962 42.786 34.5432 43.5811 33.4653 44.4405 32.1118 44.8788 30.7347 44.8144 29.3953 44.8214 28.0699 44.5422 26.8472 43.9955Z" fill="#FFFFFF" transform="matrix(1 0 -0 1 290 348)"/><path d="M43.0483 36.4475 43.2555 36.4475 43.4134 36.4475C44.5866 36.3655 45.7462 36.7403 46.6496 37.4934 47.4615 38.2571 47.8948 39.3404 47.8336 40.4534 47.8651 41.6786 47.3255 42.8488 46.3734 43.6206 45.2671 44.4584 43.9016 44.8809 42.5155 44.8144 41.2127 44.8068 39.9257 44.5279 38.7366 43.9955L38.7366 42.3675C39.9498 42.8087 41.2252 43.0551 42.5155 43.0976 43.3678 43.1546 44.213 42.9102 44.9032 42.407 45.4728 41.9149 45.7794 41.1848 45.732 40.4336 45.732 38.7958 44.696 37.9768 42.624 37.9768 41.9649 37.9733 41.3061 38.0062 40.6507 38.0755L40.6507 36.7336 44.923 32.0667 38.9536 32.0667 38.9536 30.3992 47.2416 30.3992 47.2416 32.0075Z" fill="#FFFFFF" transform="matrix(1 0 -0 1 290 348)"/><path d="M37 55.7467C36.8263 55.7449 36.6561 55.6972 36.5067 55.6086 33.309 53.7155 29.8122 52.3809 26.1664 51.6619 24.0845 51.287 17.2864 49.6886 17.2864 44.7552 17.2864 42.5254 18.1448 41.0454 19.2597 39.1707 20.8935 36.7749 21.8201 33.9677 21.9336 31.0702 21.9234 28.2899 21.1077 25.5723 19.5853 23.2459 19.3568 22.8865 19.3847 22.421 19.6544 22.0915L21.2331 20.1181C21.5368 19.7436 22.0667 19.6435 22.4861 19.8813 24.5105 21.0566 26.8055 21.6856 29.1462 21.7067 31.7561 21.7446 34.309 20.942 36.4278 19.4176 36.7703 19.1737 37.2298 19.1737 37.5723 19.4176 39.6911 20.942 42.244 21.7446 44.8539 21.7067 47.2021 21.686 49.5044 21.0535 51.5336 19.8715 51.9531 19.6336 52.483 19.7338 52.7867 20.1083L54.3654 22.0816C54.6351 22.4112 54.663 22.8766 54.4344 23.236 52.911 25.5619 52.0953 28.2799 52.0862 31.0603 52.0862 34.563 53.507 36.9803 54.7502 39.1608 55.8454 41.0355 56.7235 42.5155 56.7235 44.7454 56.7235 49.6787 49.9352 51.3067 47.8435 51.652 44.1977 52.371 40.7009 53.7056 37.5032 55.5987 37.3519 55.6925 37.178 55.7437 37 55.7467ZM21.608 22.6933C23.0958 25.195 23.8831 28.051 23.8872 30.9616 23.8872 34.9971 22.2592 37.7992 20.9272 40.0488 19.9405 41.7952 19.2499 42.9496 19.2499 44.6467 19.2499 48.1592 25.2784 49.4222 26.492 49.6392 30.1803 50.3729 33.7233 51.7062 36.9803 53.5859 40.2373 51.7062 43.7803 50.3729 47.4686 49.6392 48.6822 49.4222 54.7107 48.1592 54.7107 44.6467 54.7107 42.9496 54.0398 41.7952 53.0334 40.0488 51.7211 37.7992 50.0734 34.9971 50.0734 30.9616 50.0894 28.0473 50.8904 25.1911 52.392 22.6933L51.7704 21.9237C49.6343 23.0264 47.2676 23.608 44.8638 23.6208 42.0669 23.6562 39.3215 22.8669 36.9704 21.3515 34.6194 22.8669 31.874 23.6562 29.0771 23.6208 26.6732 23.608 24.3065 23.0264 22.1704 21.9237Z" fill="#FFFFFF" transform="matrix(1 0 -0 1 290 348)"/><path d="M37 61.6667C36.7741 61.6677 36.5547 61.591 36.3784 61.4496 33.0592 59.0555 29.2797 57.3757 25.2784 56.5163 17.168 55.056 12.3235 50.5963 12.3235 44.6763 12.4032 41.7879 13.3107 38.9831 14.9381 36.5955 16.0136 34.7504 16.9115 33.152 16.9115 30.9912 16.7904 28.0972 15.4932 25.378 13.32 23.4629 12.8824 23.1382 12.791 22.5202 13.1157 22.0826 13.1364 22.0548 13.1584 22.0281 13.1819 22.0027 13.1819 21.9336 18.9736 14.9875 20.2859 13.1819 20.4639 12.9314 20.7484 12.7782 21.0555 12.7675 21.3595 12.742 21.6582 12.8585 21.8645 13.0832 23.6798 15.2363 26.3044 16.5432 29.1166 16.6944 31.8694 16.6944 34.0499 15.4709 36.1515 12.7477 36.528 12.2955 37.1999 12.2341 37.6522 12.6106 37.702 12.6521 37.7479 12.698 37.7894 12.7477 39.9008 15.5104 42.0715 16.6944 44.8243 16.6944 47.6364 16.5432 50.261 15.2363 52.0763 13.0832 52.2827 12.8585 52.5814 12.742 52.8854 12.7675 53.1924 12.7782 53.4769 12.9314 53.655 13.1819 54.9672 14.9875 60.7096 21.9336 60.759 22.0027 60.9411 22.2115 61.027 22.4872 60.9958 22.7624 60.9648 23.0352 60.8307 23.2859 60.6208 23.4629 58.4477 25.378 57.1505 28.0972 57.0294 30.9912 57.0294 33.152 57.9568 34.7504 59.0027 36.5955 60.6301 38.9831 61.5377 41.7879 61.6174 44.6763 61.6174 50.5963 56.7728 55.056 48.6624 56.5163 44.662 57.369 40.8843 59.0495 37.5723 61.4496 37.4094 61.5808 37.209 61.6568 37 61.6667ZM15.4019 22.5848C17.6331 24.8265 18.9187 27.8391 18.9933 31.0011 18.9933 33.7144 17.8389 35.7075 16.724 37.6315 15.5203 39.7134 14.3757 41.667 14.3757 44.6862 14.3757 51.9086 22.9992 54.02 25.6435 54.4936 29.7184 55.3376 33.581 56.9954 37 59.3678 40.416 56.9967 44.2752 55.3389 48.3467 54.4936 50.991 54.02 59.6144 51.9086 59.6144 44.6862 59.6144 41.667 58.4699 39.7528 57.2662 37.6315 56.1512 35.6582 54.9968 33.6848 54.9968 31.0011 55.0715 27.8391 56.3571 24.8265 58.5883 22.5848 57.2958 21.016 54.3062 17.3752 52.7374 15.3525 50.6316 17.4462 47.8118 18.6657 44.844 18.7664 41.7679 18.7752 38.8581 17.3712 36.9507 14.9579 35.0433 17.3712 32.1334 18.7752 29.0574 18.7664 26.0896 18.6657 23.2698 17.4462 21.164 15.3525 19.7333 17.3752 16.6944 21.016 15.4019 22.5848Z" fill="#FFFFFF" transform="matrix(1 0 -0 1 290 348)"/></g></g></g><text font-family="Calibri,Calibri_MSFontService,sans-serif" font-weight="400" font-size="19" transform="matrix(1 0 0 0.999101 246.564 271)">Amazon API Gateway</text><g clip-path="url(#clip14)"><g clip-path="url(#clip15)"><g clip-path="url(#clip16)"><path d="M0 0 74 0 74 74 0 74Z" fill="url(#fill17)" transform="matrix(1 0 -0 1 290 168)"/><path d="M47.8632 60.68C47.6542 60.6808 47.4504 60.6151 47.2811 60.4926 47.0224 60.3084 46.8682 60.0109 46.8667 59.6934L46.8667 14.3067C46.8681 13.9638 47.0474 13.6463 47.3403 13.468 47.6367 13.2762 48.0129 13.2574 48.327 13.4187L61.1536 19.684C61.4893 19.8484 61.7032 20.1884 61.7062 20.5621L61.7062 55.431C61.7279 55.8758 61.449 56.2801 61.0254 56.4176L48.1987 60.68C48.0874 60.6961 47.9745 60.6961 47.8632 60.68ZM48.8499 15.8952 48.8499 58.3219 59.7032 54.7206 59.7032 21.1739Z" fill="#FFFFFF" transform="matrix(1 0 -0 1 290 168)"/><path d="M26.1467 60.68C26.0419 60.6942 25.9357 60.6942 25.8309 60.68L13.0043 56.4176C12.5846 56.2765 12.3103 55.8731 12.3333 55.431L12.3333 20.5621C12.3363 20.1884 12.5502 19.8484 12.8859 19.684L25.7125 13.4187C26.0266 13.2574 26.4028 13.2762 26.6992 13.468 26.9883 13.6487 27.1636 13.9658 27.1629 14.3067L27.1629 59.6934C27.1615 60.0109 27.0072 60.3084 26.7485 60.4926 26.576 60.6234 26.363 60.6897 26.1467 60.68ZM14.3067 54.76 25.16 58.3614 25.16 15.9347 14.3067 21.2331Z" fill="#FFFFFF" transform="matrix(1 0 -0 1 290 168)"/><path d="M46.8667 27.1333 43.9067 27.1333 43.9067 25.16 46.8667 25.16ZM40.9467 27.1333 37.9867 27.1333 37.9867 25.16 40.9467 25.16ZM35.0267 27.1333 32.0667 27.1333 32.0667 25.16 35.0267 25.16ZM29.1067 27.1333 26.1467 27.1333 26.1467 25.16 29.1067 25.16Z" fill="#FFFFFF" transform="matrix(1 0 -0 1 290 168)"/><path d="M46.8667 48.84 43.9067 48.84 43.9067 46.8667 46.8667 46.8667ZM40.9467 48.84 37.9867 48.84 37.9867 46.8667 40.9467 46.8667ZM35.0267 48.84 32.0667 48.84 32.0667 46.8667 35.0267 46.8667ZM29.1067 48.84 26.1467 48.84 26.1467 46.8667 29.1067 46.8667Z" fill="#FFFFFF" transform="matrix(1 0 -0 1 290 168)"/><path d="M32.6686 40.3942 28.9587 37.227C28.5445 36.8728 28.4959 36.25 28.8501 35.8358 28.8834 35.7969 28.9197 35.7605 28.9587 35.7272L32.6587 32.56 33.9414 34.0598 31.1195 36.5067 33.9414 38.924Z" fill="#FFFFFF" transform="matrix(1 0 -0 1 290 168)"/><path d="M41.3414 40.3942 40.0587 38.8944 42.8806 36.5067 40.0488 34.0992 41.3315 32.56 45.0414 35.7174C45.4555 36.0715 45.5041 36.6943 45.15 37.1085 45.1166 37.1474 45.0803 37.1838 45.0414 37.2171Z" fill="#FFFFFF" transform="matrix(1 0 -0 1 290 168)"/><path d="M30.8728 36.0133 43.1173 36.0133 43.1173 37.9867 30.8728 37.9867Z" fill="#FFFFFF" transform="matrix(0.320282 -0.947322 0.947322 0.320282 280.094 228.187)"/></g></g></g><text font-family="Calibri,Calibri_MSFontService,sans-serif" font-weight="400" font-size="19" transform="matrix(1 0 0 0.999101 553.661 270)">AWS Lambda</text><g clip-path="url(#clip18)"><g clip-path="url(#clip19)"><g clip-path="url(#clip20)"><path d="M0 0 74.0001 0 74.0001 74.0001 0 74.0001Z" fill="url(#fill21)" transform="matrix(1.01351 0 -0 1 566 168)"/><path d="M59.6934 61.6667 47.5376 61.6667C47.1581 61.6656 46.8128 61.447 46.6496 61.1043L29.4619 25.16 22.1901 25.16C21.6452 25.16 21.2035 24.7183 21.2035 24.1733L21.2035 13.32C21.2035 12.7751 21.6452 12.3333 22.1901 12.3333L37.3848 12.3333C37.7644 12.3344 38.1096 12.5531 38.2728 12.8957L55.3816 48.84 59.6934 48.84C60.2383 48.84 60.68 49.2818 60.68 49.8267L60.68 60.68C60.68 61.225 60.2383 61.6667 59.6934 61.6667ZM48.1592 59.6934 58.7067 59.6934 58.7067 50.8134 54.76 50.8134C54.3805 50.8123 54.0352 50.5936 53.872 50.251L36.7632 14.3067 23.1867 14.3067 23.1867 23.1867 30.0934 23.1867C30.4729 23.1878 30.8182 23.4064 30.9814 23.7491Z" fill="#FFFFFF" transform="matrix(1.01351 0 -0 1 566 168)"/><path d="M27.1136 61.6667 14.2869 61.6667C13.946 61.6674 13.6289 61.4921 13.4483 61.203 13.2565 60.9066 13.2377 60.5303 13.3989 60.2163L26.8176 32.1851C26.9808 31.8424 27.3261 31.6238 27.7056 31.6227L27.7056 31.6227C28.0829 31.6219 28.4276 31.8364 28.5936 32.1752L35.0168 45.3867C35.1478 45.6578 35.1478 45.974 35.0168 46.2451L28.0115 61.0451C27.8646 61.4141 27.5107 61.6591 27.1136 61.6667ZM15.8656 59.6934 26.492 59.6934 33.0336 45.88 27.7155 34.8787Z" fill="#FFFFFF" transform="matrix(1.01351 0 -0 1 566 168)"/></g></g></g><text font-family="Calibri,Calibri_MSFontService,sans-serif" font-weight="400" font-size="19" transform="matrix(1 0 0 0.999101 492.941 450)">Amazon Simple Email Service</text><g clip-path="url(#clip22)"><g clip-path="url(#clip23)"><g clip-path="url(#clip24)"><path d="M0 0 74.0001 0 74.0001 74.0001 0 74.0001Z" fill="url(#fill25)" transform="matrix(1.01351 0 -0 1 566 348)"/><path d="M37 12.3333C23.377 12.3394 12.3382 23.3879 12.3442 37.0109 12.3465 42.1728 13.9681 47.2039 16.9805 51.3955L18.5789 50.2411C11.2593 40.0674 13.573 25.8863 23.7467 18.5666 33.9203 11.247 48.1015 13.5607 55.4211 23.7344 58.2014 27.5987 59.696 32.2395 59.6934 37 59.7036 41.7542 58.208 46.3894 55.4211 50.2411L57.0195 51.3955C64.9699 40.333 62.4471 24.9201 51.3846 16.9697 47.193 13.9572 42.1619 12.3356 37 12.3333Z" fill="#FFFFFF" transform="matrix(1.01351 0 -0 1 566 348)"/><path d="M49.8267 51.4251 49.8267 47.8534C49.8267 47.3084 49.385 46.8667 48.84 46.8667L37.9867 46.8667 37.9867 40.9467 48.84 40.9467C49.385 40.9467 49.8267 40.5049 49.8267 39.96L49.8267 25.16C49.8267 24.6151 49.385 24.1733 48.84 24.1733L25.16 24.1733C24.6151 24.1733 24.1733 24.6151 24.1733 25.16L24.1733 39.96C24.1733 40.5049 24.6151 40.9467 25.16 40.9467L36.0134 40.9467 36.0134 46.8667 25.16 46.8667C24.6151 46.8667 24.1733 47.3084 24.1733 47.8534L24.1733 51.4251C21.7825 51.97 20.2861 54.3499 20.831 56.7408 21.376 59.1316 23.7559 60.628 26.1467 60.0831 28.5375 59.5382 30.0339 57.1582 29.489 54.7674 29.1098 53.1036 27.8105 51.8043 26.1467 51.4251L26.1467 48.84 36.0134 48.84 36.0134 52.9051C33.6225 53.45 32.1261 55.8299 32.671 58.2208 33.216 60.6116 35.5959 62.108 37.9867 61.5631 40.3775 61.0182 41.8739 58.6382 41.329 56.2474 40.9498 54.5836 39.6505 53.2843 37.9867 52.9051L37.9867 48.84 47.8534 48.84 47.8534 51.4251C45.4625 51.97 43.9661 54.3499 44.511 56.7408 45.056 59.1316 47.4359 60.628 49.8267 60.0831 52.2175 59.5382 53.7139 57.1582 53.169 54.7674 52.7898 53.1036 51.4905 51.8043 49.8267 51.4251ZM41.2131 32.6094 47.8534 27.232 47.8534 37.9078ZM37 33.4776 27.9424 26.1467 46.0576 26.1467ZM32.7475 32.56 26.1467 37.888 26.1467 27.232ZM34.3163 33.8328 36.3784 35.52C36.7407 35.8139 37.2593 35.8139 37.6216 35.52L39.595 33.8822 45.9688 38.9734 27.9523 38.9734ZM27.6267 55.7467C27.6267 57.109 26.5223 58.2134 25.16 58.2134 23.7977 58.2134 22.6933 57.109 22.6933 55.7467 22.6933 54.3844 23.7977 53.28 25.16 53.28 26.5223 53.28 27.6267 54.3844 27.6267 55.7467ZM39.4667 57.2267C39.4667 58.589 38.3623 59.6934 37 59.6934 35.6377 59.6934 34.5334 58.589 34.5334 57.2267 34.5334 55.8644 35.6377 54.76 37 54.76 38.3623 54.76 39.4667 55.8644 39.4667 57.2267ZM48.84 58.2134C47.4777 58.2134 46.3734 57.109 46.3734 55.7467 46.3734 54.3844 47.4777 53.28 48.84 53.28 50.2023 53.28 51.3067 54.3844 51.3067 55.7467 51.3067 57.109 50.2023 58.2134 48.84 58.2134Z" fill="#FFFFFF" transform="matrix(1.01351 0 -0 1 566 348)"/></g></g></g><path d="M0.760146-0.5 108.403-0.5 108.403 185.5 83.6798 185.5 0.760146 185.5 0.760146 184.5 83.6798 184.5 107.903 184.5 107.403 185 107.403 0 107.903 0.5 0.760146 0.5ZM5.76046 5.03979 0.000703775 0 5.76046-5.03979C5.96828-5.22163 6.28416-5.20057 6.466-4.99275 6.64784-4.78493 6.62679-4.46905 6.41897-4.28721L1.08925 0.376288 1.08925-0.376288 6.41897 4.28721C6.62679 4.46905 6.64784 4.78493 6.466 4.99275 6.28416 5.20057 5.96828 5.22163 5.76046 5.03979ZM5.76046 190.04 0.000703775 185 5.76046 179.96C5.96828 179.778 6.28416 179.799 6.466 180.007 6.64784 180.215 6.62679 180.531 6.41897 180.713L1.08925 185.376 1.08925 184.624 6.41897 189.287C6.62679 189.469 6.64784 189.785 6.466 189.993 6.28416 190.201 5.96828 190.222 5.76046 190.04Z" fill="#44546A" transform="matrix(-1.0009 -8.75014e-08 8.74228e-08 -1 263.5 385.5)"/><path d="M0 0 67.8099 0.000104916" stroke="#545B64" stroke-miterlimit="8" fill="none" fill-rule="evenodd" transform="matrix(1.0009 0 -0 1 87.5 280.5)"/><text font-family="Calibri,Calibri_MSFontService,sans-serif" font-weight="400" font-size="19" transform="matrix(1 0 0 0.999101 177.784 374)">DNS Lookup<tspan x="-0.386749" y="-186.167">POST /email</tspan></text><path d="M-0.5 9.46615e-07-0.500103-54.6563 0.499897-54.6563 0.5-9.46615e-07ZM-5.03988-49.6558-0.00010483-55.4155 5.03969-49.6558C5.22154-49.448 5.20048-49.1321 4.99266-48.9502 4.78484-48.7684 4.46896-48.7895 4.28712-48.9973L-0.376391-54.327 0.376186-54.327-4.2873-48.9973C-4.46915-48.7894-4.78503-48.7684-4.99285-48.9502-5.20066-49.1321-5.22172-49.4479-5.03988-49.6558Z" fill="#545B64" transform="matrix(1.0009 8.75014e-08 8.74228e-08 -1 604.5 101.5)"/><text font-family="Calibri,Calibri_MSFontService,sans-serif" font-weight="400" font-size="19" transform="matrix(1 0 0 0.999101 616.055 146)">Invoke</text><path d="M3.03782e-07-0.5 171.927-0.499896 171.927 0.500104-3.03782e-07 0.5ZM166.922-5.03969 172.682 0.000105206 166.922 5.03989C166.714 5.22173 166.399 5.20067 166.217 4.99285 166.035 4.78503 166.056 4.46915 166.264 4.28731L171.594-0.376184 171.594 0.376393 166.264-4.28711C166.056-4.46895 166.035-4.78483 166.217-4.99265 166.399-5.20047 166.714-5.22153 166.922-5.03969Z" fill="#545B64" transform="matrix(1.0009 0 -0 1 379.5 200.5)"/><text font-family="Calibri,Calibri_MSFontService,sans-serif" font-weight="400" font-size="19" transform="matrix(1 0 0 0.999101 437.847 193)">Invoke</text><path d="M-0.5 9.46615e-07-0.500103-54.6563 0.499897-54.6563 0.5-9.46615e-07ZM-5.03988-49.6558-0.00010483-55.4155 5.03969-49.6558C5.22154-49.448 5.20048-49.1321 4.99266-48.9502 4.78484-48.7684 4.46896-48.7895 4.28712-48.9973L-0.376391-54.327 0.376186-54.327-4.2873-48.9973C-4.46915-48.7894-4.78503-48.7684-4.99285-48.9502-5.20066-49.1321-5.22172-49.4479-5.03988-49.6558Z" fill="#545B64" transform="matrix(1.0009 8.75014e-08 8.74228e-08 -1 604.5 281.5)"/><text font-family="Calibri,Calibri_MSFontService,sans-serif" font-weight="400" font-size="19" transform="matrix(1 0 0 0.999101 609.847 314)">Send Email</text></g></svg>