<svg width="718" height="380" xmlns="http://www.w3.org/2000/svg" xmlns:xlink="http://www.w3.org/1999/xlink" overflow="hidden"><defs><clipPath id="clip0"><path d="M0 0 718 0 718 380 0 380Z" fill-rule="evenodd" clip-rule="evenodd"/></clipPath><clipPath id="clip1"><path d="M160 14 195 14 195 49 160 49Z" fill-rule="evenodd" clip-rule="evenodd"/></clipPath><clipPath id="clip2"><path d="M160 14 195 14 195 49 160 49Z" fill-rule="evenodd" clip-rule="evenodd"/></clipPath><clipPath id="clip3"><path d="M160 14 195 14 195 49 160 49Z" fill-rule="evenodd" clip-rule="evenodd"/></clipPath><clipPath id="clip4"><path d="M14 142 65 142 65 191 14 191Z" fill-rule="evenodd" clip-rule="evenodd"/></clipPath><clipPath id="clip5"><path d="M14 142 65 142 65 191 14 191Z" fill-rule="evenodd" clip-rule="evenodd"/></clipPath><clipPath id="clip6"><path d="M14 142 65 142 65 191 14 191Z" fill-rule="evenodd" clip-rule="evenodd"/></clipPath><clipPath id="clip7"><path d="M278 240 353 240 353 315 278 315Z" fill-rule="evenodd" clip-rule="evenodd"/></clipPath><clipPath id="clip8"><path d="M278 240 353 240 353 315 278 315Z" fill-rule="evenodd" clip-rule="evenodd"/></clipPath><clipPath id="clip9"><path d="M278 240 353 240 353 315 278 315Z" fill-rule="evenodd" clip-rule="evenodd"/></clipPath><linearGradient x1="-15.3229" y1="89.3259" x2="89.3289" y2="-15.3259" gradientUnits="userSpaceOnUse" spreadMethod="pad" id="fill10"><stop offset="0" stop-color="#4D27A8"/><stop offset="1" stop-color="#A166FF"/></linearGradient><clipPath id="clip11"><path d="M278 59 353 59 353 135 278 135Z" fill-rule="evenodd" clip-rule="evenodd"/></clipPath><clipPath id="clip12"><path d="M278 59 353 59 353 135 278 135Z" fill-rule="evenodd" clip-rule="evenodd"/></clipPath><clipPath id="clip13"><path d="M278 59 353 59 353 135 278 135Z" fill-rule="evenodd" clip-rule="evenodd"/></clipPath><linearGradient x1="-15.54" y1="90.5399" x2="90.5299" y2="-15.53" gradientUnits="userSpaceOnUse" spreadMethod="pad" id="fill14"><stop offset="0" stop-color="#4D27A8"/><stop offset="1" stop-color="#A166FF"/></linearGradient><clipPath id="clip15"><path d="M554 59 630 59 630 135 554 135Z" fill-rule="evenodd" clip-rule="evenodd"/></clipPath><clipPath id="clip16"><path d="M554 59 630 59 630 135 554 135Z" fill-rule="evenodd" clip-rule="evenodd"/></clipPath><clipPath id="clip17"><path d="M554 59 630 59 630 135 554 135Z" fill-rule="evenodd" clip-rule="evenodd"/></clipPath><linearGradient x1="-15.533" y1="90.53" x2="90.5331" y2="-15.5361" gradientUnits="userSpaceOnUse" spreadMethod="pad" id="fill18"><stop offset="0" stop-color="#C8511B"/><stop offset="1" stop-color="#FF9900"/></linearGradient><clipPath id="clip19"><path d="M554 240 630 240 630 315 554 315Z" fill-rule="evenodd" clip-rule="evenodd"/></clipPath><clipPath id="clip20"><path d="M554 240 630 240 630 315 554 315Z" fill-rule="evenodd" clip-rule="evenodd"/></clipPath><clipPath id="clip21"><path d="M554 240 630 240 630 315 554 315Z" fill-rule="evenodd" clip-rule="evenodd"/></clipPath><linearGradient x1="-15.3229" y1="89.323" x2="89.323" y2="-15.3229" gradientUnits="userSpaceOnUse" spreadMethod="pad" id="fill22"><stop offset="0" stop-color="#2E27AD"/><stop offset="1" stop-color="#527FFF"/></linearGradient></defs><g clip-path="url(#clip0)"><rect x="0" y="0" width="718" height="379.745" fill="#FFFFFF" transform="scale(1 1.00067)"/><rect x="0" y="0" width="552" height="351.764" stroke="#000000" stroke-miterlimit="8" fill="none" transform="matrix(1 0 -0 1.00067 160.5 14.5)"/><text font-family="Calibri,Calibri_MSFontService,sans-serif" font-weight="400" font-size="16" transform="matrix(1 0 0 1.00067 207.778 39)">AWS Cloud</text><g clip-path="url(#clip1)"><g clip-path="url(#clip2)"><g clip-path="url(#clip3)"><path d="M0 0 34 0 34 34 0 34Z" fill="#232F3E" transform="matrix(1 0 -0 1.02941 160 14.0001)"/><path d="M11.0549 15.708C11.0467 15.9808 11.0828 16.2531 11.1617 16.5143 11.2398 16.7393 11.3373 16.9571 11.4531 17.1651 11.4945 17.2254 11.5181 17.2961 11.5211 17.3691 11.5108 17.4829 11.4455 17.5845 11.3463 17.6411L10.7731 18.02C10.705 18.0687 10.6237 18.0958 10.54 18.0977 10.4355 18.096 10.3367 18.0501 10.268 17.9714 10.1422 17.8454 10.0313 17.7052 9.93771 17.5537 9.85028 17.3983 9.76285 17.2234 9.66571 17.0194 9.01996 17.8262 8.03727 18.2889 7.004 18.2726 6.33853 18.3085 5.68681 18.0738 5.19714 17.6217 4.74114 17.1615 4.50116 16.5298 4.53657 15.8828 4.51272 15.1698 4.81268 14.4842 5.35257 14.0177 5.98564 13.5242 6.77557 13.2759 7.57714 13.3183 7.90219 13.3168 8.22689 13.3396 8.54857 13.3863 8.88857 13.4348 9.22857 13.5028 9.58799 13.5806L9.58799 12.92C9.63989 12.4002 9.48649 11.8808 9.16057 11.4726 8.74057 11.1483 8.21162 10.9987 7.684 11.0549 7.35679 11.0564 7.03085 11.0955 6.71257 11.1714 6.38128 11.25 6.05652 11.354 5.74114 11.4823L5.42057 11.5989 5.28457 11.5989C5.14857 11.5989 5.09028 11.5017 5.09028 11.3171L5.09028 10.8703C5.08167 10.7633 5.10179 10.656 5.14857 10.5594 5.22084 10.4764 5.31035 10.4101 5.41085 10.3651 5.77456 10.1902 6.15546 10.0534 6.54742 9.95714 7.0075 9.83867 7.48091 9.7799 7.956 9.78228 8.81238 9.70763 9.66376 9.97281 10.3263 10.5206 10.8764 11.1245 11.1477 11.9316 11.0743 12.7451ZM7.38285 17.0874C7.71369 17.0879 8.04219 17.0321 8.35428 16.9223 8.68668 16.8088 8.98211 16.6074 9.20914 16.3394 9.35901 16.1773 9.46589 15.9803 9.51999 15.7663 9.58277 15.5088 9.61215 15.2444 9.60742 14.9794L9.60742 14.5714C9.32201 14.5121 9.0333 14.4699 8.74285 14.4451 8.45142 14.4451 8.16971 14.4451 7.888 14.4451 7.41308 14.407 6.93957 14.534 6.54742 14.8046 6.24007 15.0633 6.07416 15.4528 6.10057 15.8537 6.06823 16.2097 6.18825 16.5627 6.43085 16.8251 6.70094 17.0352 7.04331 17.1295 7.38285 17.0874ZM14.6588 18.0588C14.5357 18.0703 14.4124 18.0395 14.3091 17.9714 14.2105 17.8733 14.1429 17.7483 14.1149 17.612L11.9971 10.6177C11.9541 10.4989 11.9279 10.3746 11.9194 10.2486 11.9194 10.1029 11.9874 10.0251 12.1331 10.0251L13.0268 10.0251C13.15 10.0137 13.2733 10.0445 13.3766 10.1126 13.4712 10.2123 13.5352 10.337 13.5611 10.472L15.0863 16.5143 16.5143 10.4817C16.5292 10.3453 16.591 10.2182 16.6891 10.1223 16.796 10.0542 16.9224 10.0235 17.0486 10.0349L17.7771 10.0349C17.9064 10.0235 18.0359 10.0541 18.1463 10.1223 18.2374 10.2232 18.298 10.3478 18.3211 10.4817L19.7297 16.5143 21.2937 10.4526C21.3196 10.3176 21.3837 10.1928 21.4783 10.0931 21.5815 10.0251 21.7049 9.99426 21.828 10.0057L22.6731 10.0057C22.7852 9.99441 22.8853 10.0761 22.8966 10.1882 22.8979 10.2018 22.8979 10.2155 22.8966 10.2291 22.9002 10.2776 22.9002 10.3263 22.8966 10.3749 22.8966 10.3749 22.8966 10.5011 22.8383 10.5983L20.6428 17.5926C20.617 17.7276 20.5529 17.8523 20.4583 17.952 20.3539 18.0174 20.2314 18.048 20.1086 18.0394L19.3314 18.0394C19.2037 18.053 19.0755 18.0184 18.972 17.9423 18.8757 17.845 18.8143 17.7186 18.7971 17.5828L17.3886 11.7543 15.9897 17.5828C15.9726 17.7186 15.9111 17.845 15.8148 17.9423 15.7106 18.0167 15.583 18.0512 15.4554 18.0394ZM26.316 18.292C25.8453 18.2942 25.3759 18.2421 24.9171 18.1366 24.5561 18.0641 24.2064 17.9432 23.8777 17.7771 23.7615 17.7217 23.6637 17.6341 23.596 17.5246 23.5583 17.4422 23.5384 17.3528 23.5377 17.2623L23.5377 16.8057C23.5377 16.6211 23.6057 16.524 23.7417 16.524 23.7996 16.5147 23.8586 16.5147 23.9166 16.524L24.14 16.6211C24.4513 16.7603 24.7771 16.8645 25.1114 16.932 25.4657 17.0091 25.8271 17.0482 26.1897 17.0486 26.6499 17.0772 27.1085 16.9726 27.5108 16.7474 27.8082 16.5666 27.986 16.2405 27.9771 15.8926 27.9864 15.6576 27.8986 15.4293 27.7343 15.2611 27.4713 15.0332 27.1586 14.8702 26.8211 14.7851L25.5097 14.3674C24.9424 14.2248 24.4353 13.9049 24.0623 13.4543 23.7689 13.0761 23.6085 12.6117 23.6057 12.1331 23.6004 11.7937 23.6841 11.4587 23.8486 11.1617 24.0111 10.8698 24.2328 10.615 24.4994 10.4137 24.7914 10.1992 25.1209 10.0411 25.4708 9.94742 25.8433 9.84011 26.2295 9.78775 26.6171 9.792 26.8176 9.77783 27.0189 9.77783 27.2194 9.792L27.812 9.88914 28.3268 10.0349 28.7057 10.1903C28.8073 10.2503 28.8991 10.3257 28.9777 10.4137 29.0318 10.5046 29.0588 10.6091 29.0554 10.7149L29.0554 11.1423C29.0554 11.3366 28.9874 11.4337 28.8514 11.4337 28.728 11.4196 28.6089 11.3799 28.5017 11.3171 27.9504 11.0775 27.3542 10.9583 26.7531 10.9674 26.3366 10.9472 25.9219 11.0342 25.5486 11.22 25.2661 11.392 25.1017 11.7059 25.1211 12.036 25.1202 12.2779 25.2185 12.5096 25.3931 12.6771 25.6799 12.9066 26.0104 13.0752 26.3646 13.1726L27.6468 13.5806C28.1904 13.7248 28.6779 14.0295 29.0457 14.4548 29.3242 14.8199 29.4714 15.2683 29.4634 15.7274 29.4692 16.0906 29.3893 16.45 29.2303 16.7766 29.0743 17.0893 28.8482 17.3619 28.5697 17.5731 28.2815 17.8048 27.9518 17.9796 27.5983 18.088 27.1743 18.2243 26.7322 18.2964 26.2868 18.3017Z" fill="#FFFFFF" transform="matrix(1 0 -0 1.02941 160 14.0001)"/><path d="M27.9966 22.7606C24.7452 24.97 20.9019 26.145 16.9708 26.1314 12.0007 26.1583 7.19938 24.3292 3.50685 21.0023 3.22514 20.7497 3.50686 20.4 3.81771 20.5943 7.91603 22.9424 12.5584 24.175 17.2817 24.1691 20.8125 24.1548 24.3055 23.4416 27.5594 22.0708 28.0646 21.8571 28.492 22.4011 27.9966 22.7606Z" fill="#FFFFFF" fill-rule="evenodd" transform="matrix(1 0 -0 1.02941 160 14.0001)"/><path d="M29.24 21.3714C28.8514 20.876 26.7143 21.1383 25.7526 21.2548 25.4611 21.2548 25.4223 21.0314 25.6846 20.8468 27.3846 19.652 30.1823 19.992 30.5417 20.4 30.9011 20.808 30.4543 23.6057 28.8514 24.9463 28.6086 25.1503 28.3754 25.0337 28.4823 24.7714 28.8126 23.8486 29.6188 21.8377 29.24 21.3714Z" fill="#FFFFFF" fill-rule="evenodd" transform="matrix(1 0 -0 1.02941 160 14.0001)"/></g></g></g><g clip-path="url(#clip4)"><g clip-path="url(#clip5)"><g clip-path="url(#clip6)"><path d="M38.612 38.6022 33.712 38.6022 33.712 36.6422 38.612 36.6422C43.2964 36.6422 45.57 34.5646 45.57 30.3016 45.57 26.656 43.4238 24.3726 39.1902 23.5102 38.7547 23.4221 38.4329 23.0521 38.4062 22.6086 38.2004 19.0708 36.1424 17.8066 34.4862 17.8066 33.3254 17.8181 32.2371 18.3731 31.5462 19.306 31.2164 19.7352 30.6012 19.8158 30.172 19.486 30.0263 19.3741 29.915 19.2234 29.8508 19.0512 29.2541 17.3438 28.2753 15.7952 26.9892 14.5236 23.9666 11.49 19.3988 10.6083 15.4644 12.299 11.9009 13.9303 9.55888 17.4282 9.40799 21.3444 9.40986 21.7441 9.43604 22.1434 9.48639 22.54 9.55095 23.0339 9.23475 23.4977 8.75139 23.618 6.7914 24.108 3.43 25.578 3.43 30.2036 3.43 30.3702 3.43 30.5172 3.43 30.674 3.626 34.1334 6.5464 36.6226 10.3782 36.6226L15.2782 36.6226 15.2782 38.5826 10.3782 38.5826C5.4782 38.5826 1.7346 35.3192 1.4798 30.821 1.4798 30.5858 1.4798 30.3996 1.4798 30.2036 1.32854 26.3965 3.80953 22.9831 7.4774 21.952 7.4774 21.7462 7.4774 21.5306 7.4774 21.3248 7.62147 14.6096 13.182 9.28259 19.8973 9.42667 23.0837 9.49503 26.1159 10.8115 28.3416 13.0928 29.4918 14.2198 30.4252 15.5485 31.0954 17.0128 32.0643 16.2656 33.2528 15.8591 34.4764 15.8564 37.0734 15.8564 39.7978 17.689 40.3564 21.7364 45.0212 22.9222 47.5888 25.9308 47.5888 30.2918 47.53 35.6524 44.3646 38.6022 38.612 38.6022ZM28.175 38.6022 20.825 38.6022 20.825 36.6422 28.175 36.6422Z" fill="#232F3E" transform="matrix(1.02041 0 -0 1 14 142)"/><path d="M30.9288 37.681C30.6717 37.6799 30.4253 37.5778 30.2428 37.3968L24.7254 31.8892 26.1072 30.4976 30.9288 35.28 35.7504 30.4584 37.1322 31.85 31.6246 37.3576C31.4462 37.5555 31.195 37.6722 30.9288 37.681Z" fill="#232F3E" transform="matrix(1.02041 0 -0 1 14 142)"/><path d="M29.9488 22.001 31.9088 22.001 31.9088 35.7798 29.9488 35.7798Z" fill="#232F3E" transform="matrix(1.02041 0 -0 1 14 142)"/><path d="M22.8928 28.2142 18.0712 23.3926 13.2496 28.2142 11.8678 26.8226 17.3754 21.315C17.7576 20.935 18.375 20.935 18.7572 21.315L24.2746 26.8226Z" fill="#232F3E" transform="matrix(1.02041 0 -0 1 14 142)"/><path d="M17.0912 22.001 19.0512 22.001 19.0512 38.5434 17.0912 38.5434Z" fill="#232F3E" transform="matrix(1.02041 0 -0 1 14 142)"/></g></g></g><text fill="#232F3E" font-family="Calibri,Calibri_MSFontService,sans-serif" font-weight="400" font-size="19" transform="matrix(1 0 0 1.00067 8.03624 219)">Internet<tspan fill="#000000" x="240.481" y="124.916">Amazon Route 53</tspan></text><g clip-path="url(#clip7)"><g clip-path="url(#clip8)"><g clip-path="url(#clip9)"><path d="M0 0 74 0 74 74 0 74Z" fill="url(#fill10)" transform="matrix(1.01351 0 -0 1 278 241)"/><path d="M26.9261 42.3675C28.1701 42.8084 29.4747 43.0547 30.7939 43.0976 31.6413 43.1666 32.4853 42.9285 33.1717 42.4267 33.7232 41.9224 34.023 41.1999 33.9907 40.4533 34.0633 39.6756 33.7805 38.9068 33.2211 38.3616 32.4773 37.8645 31.5866 37.6349 30.6952 37.7104 29.64 37.72 28.5861 37.7858 27.5379 37.9077L27.5379 36.5067 27.9227 30.4189 35.3523 30.4189 35.3523 32.0667 29.6 32.0667 29.3336 36.2008C29.9841 36.0756 30.6446 36.0096 31.3069 36.0035 32.5608 35.9293 33.7947 36.3429 34.7504 37.1579 35.6002 37.9978 36.0492 39.1617 35.9837 40.3547 36.0279 41.595 35.4962 42.786 34.5432 43.5811 33.4653 44.4405 32.1118 44.8788 30.7347 44.8144 29.3953 44.8214 28.0699 44.5422 26.8472 43.9955Z" fill="#FFFFFF" transform="matrix(1.01351 0 -0 1 278 241)"/><path d="M43.0483 36.4475 43.2555 36.4475 43.4133 36.4475C44.5866 36.3655 45.7462 36.7403 46.6496 37.4933 47.4615 38.2571 47.8948 39.3403 47.8336 40.4533 47.865 41.6785 47.3255 42.8488 46.3733 43.6205 45.2671 44.4584 43.9016 44.8809 42.5155 44.8144 41.2126 44.8067 39.9257 44.5278 38.7365 43.9955L38.7365 42.3675C39.9498 42.8087 41.2252 43.0551 42.5155 43.0976 43.3678 43.1546 44.213 42.9101 44.9032 42.4069 45.4728 41.9149 45.7794 41.1848 45.732 40.4336 45.732 38.7957 44.696 37.9768 42.624 37.9768 41.9649 37.9733 41.3061 38.0062 40.6507 38.0755L40.6507 36.7336 44.9229 32.0667 38.9536 32.0667 38.9536 30.3992 47.2416 30.3992 47.2416 32.0075Z" fill="#FFFFFF" transform="matrix(1.01351 0 -0 1 278 241)"/><path d="M37 55.7467C36.8263 55.7449 36.6561 55.6972 36.5067 55.6085 33.309 53.7155 29.8122 52.3809 26.1664 51.6619 24.0845 51.2869 17.2864 49.6885 17.2864 44.7552 17.2864 42.5253 18.1448 41.0453 19.2597 39.1707 20.8935 36.7749 21.8201 33.9677 21.9336 31.0701 21.9234 28.2899 21.1077 25.5722 19.5853 23.2459 19.3568 22.8865 19.3846 22.421 19.6544 22.0915L21.2331 20.1181C21.5368 19.7436 22.0667 19.6435 22.4861 19.8813 24.5105 21.0566 26.8055 21.6856 29.1461 21.7067 31.7561 21.7446 34.309 20.942 36.4277 19.4176 36.7703 19.1737 37.2297 19.1737 37.5723 19.4176 39.6911 20.942 42.244 21.7446 44.8539 21.7067 47.2021 21.686 49.5044 21.0535 51.5336 19.8715 51.9531 19.6336 52.483 19.7338 52.7867 20.1083L54.3653 22.0816C54.6351 22.4112 54.6629 22.8766 54.4344 23.236 52.911 25.5619 52.0952 28.2799 52.0861 31.0603 52.0861 34.5629 53.5069 36.9803 54.7501 39.1608 55.8453 41.0355 56.7235 42.5155 56.7235 44.7453 56.7235 49.6787 49.9352 51.3067 47.8435 51.652 44.1977 52.371 40.7009 53.7056 37.5032 55.5987 37.3519 55.6925 37.178 55.7436 37 55.7467ZM21.608 22.6933C23.0958 25.195 23.8831 28.0509 23.8872 30.9616 23.8872 34.9971 22.2592 37.7992 20.9272 40.0488 19.9405 41.7952 19.2499 42.9496 19.2499 44.6467 19.2499 48.1592 25.2784 49.4221 26.492 49.6392 30.1802 50.3729 33.7233 51.7061 36.9803 53.5859 40.2373 51.7061 43.7803 50.3729 47.4685 49.6392 48.6821 49.4221 54.7107 48.1592 54.7107 44.6467 54.7107 42.9496 54.0397 41.7952 53.0333 40.0488 51.7211 37.7992 50.0733 34.9971 50.0733 30.9616 50.0894 28.0473 50.8904 25.1911 52.392 22.6933L51.7704 21.9237C49.6343 23.0264 47.2676 23.608 44.8637 23.6208 42.0668 23.6561 39.3215 22.8669 36.9704 21.3515 34.6193 22.8669 31.874 23.6561 29.0771 23.6208 26.6732 23.608 24.3065 23.0264 22.1704 21.9237Z" fill="#FFFFFF" transform="matrix(1.01351 0 -0 1 278 241)"/><path d="M37 61.6667C36.7741 61.6676 36.5546 61.591 36.3784 61.4496 33.0592 59.0555 29.2797 57.3757 25.2784 56.5163 17.168 55.056 12.3235 50.5963 12.3235 44.6763 12.4032 41.7879 13.3107 38.9831 14.9381 36.5955 16.0136 34.7504 16.9115 33.152 16.9115 30.9912 16.7904 28.0972 15.4932 25.378 13.32 23.4629 12.8824 23.1382 12.791 22.5202 13.1157 22.0826 13.1364 22.0548 13.1584 22.0281 13.1819 22.0027 13.1819 21.9336 18.9736 14.9875 20.2859 13.1819 20.4639 12.9314 20.7484 12.7782 21.0555 12.7675 21.3595 12.742 21.6582 12.8585 21.8645 13.0832 23.6798 15.2363 26.3044 16.5432 29.1165 16.6944 31.8693 16.6944 34.0499 15.4709 36.1515 12.7477 36.528 12.2955 37.1999 12.2341 37.6522 12.6106 37.702 12.6521 37.7479 12.698 37.7893 12.7477 39.9008 15.5104 42.0715 16.6944 44.8243 16.6944 47.6364 16.5432 50.261 15.2363 52.0763 13.0832 52.2826 12.8585 52.5813 12.742 52.8853 12.7675 53.1924 12.7782 53.4769 12.9314 53.6549 13.1819 54.9672 14.9875 60.7096 21.9336 60.7589 22.0027 60.941 22.2114 61.027 22.4871 60.9958 22.7624 60.9648 23.0352 60.8306 23.2858 60.6208 23.4629 58.4477 25.378 57.1504 28.0972 57.0293 30.9912 57.0293 33.152 57.9568 34.7504 59.0027 36.5955 60.6301 38.9831 61.5377 41.7879 61.6173 44.6763 61.6173 50.5963 56.7728 55.056 48.6624 56.5163 44.662 57.369 40.8843 59.0494 37.5723 61.4496 37.4093 61.5808 37.209 61.6568 37 61.6667ZM15.4019 22.5848C17.6331 24.8265 18.9187 27.8391 18.9933 31.0011 18.9933 33.7144 17.8389 35.7075 16.724 37.6315 15.5203 39.7133 14.3757 41.6669 14.3757 44.6861 14.3757 51.9085 22.9992 54.02 25.6435 54.4936 29.7184 55.3376 33.581 56.9954 37 59.3677 40.416 56.9966 44.2752 55.3389 48.3467 54.4936 50.9909 54.02 59.6144 51.9085 59.6144 44.6861 59.6144 41.6669 58.4699 39.7528 57.2661 37.6315 56.1512 35.6581 54.9968 33.6848 54.9968 31.0011 55.0715 27.8391 56.357 24.8265 58.5883 22.5848 57.2957 21.016 54.3061 17.3752 52.7373 15.3525 50.6315 17.4461 47.8117 18.6657 44.844 18.7664 41.7679 18.7752 38.8581 17.3712 36.9507 14.9579 35.0433 17.3712 32.1334 18.7752 29.0573 18.7664 26.0896 18.6657 23.2698 17.4461 21.164 15.3525 19.7333 17.3752 16.6944 21.016 15.4019 22.5848Z" fill="#FFFFFF" transform="matrix(1.01351 0 -0 1 278 241)"/></g></g></g><text font-family="Calibri,Calibri_MSFontService,sans-serif" font-weight="400" font-size="19" transform="matrix(1 0 0 1.00067 234.74 164)">Amazon API Gateway</text><g clip-path="url(#clip11)"><g clip-path="url(#clip12)"><g clip-path="url(#clip13)"><path d="M0 0 74.9999 0 74.9999 74.9999 0 74.9999Z" fill="url(#fill14)" transform="matrix(1 0 -0 1 278 60)"/><path d="M48.5099 61.4999C48.2981 61.5007 48.0915 61.4342 47.9199 61.3099 47.6577 61.1233 47.5014 60.8218 47.4999 60.4999L47.4999 14.5C47.5014 14.1525 47.6831 13.8307 47.9799 13.65 48.2803 13.4556 48.6617 13.4366 48.9799 13.6L61.9799 19.95C62.3201 20.1166 62.5369 20.4612 62.5399 20.84L62.5399 56.1799C62.562 56.6308 62.2793 57.0405 61.8499 57.1799L48.8499 61.4999C48.7372 61.5162 48.6227 61.5162 48.5099 61.4999ZM49.5099 16.11 49.5099 59.1099 60.5099 55.4599 60.5099 21.46Z" fill="#FFFFFF" transform="matrix(1 0 -0 1 278 60)"/><path d="M26.5 61.4999C26.3938 61.5143 26.2861 61.5143 26.18 61.4999L13.18 57.1799C12.7546 57.0369 12.4766 56.6281 12.5 56.1799L12.5 20.84C12.503 20.4612 12.7198 20.1166 13.06 19.95L26.06 13.6C26.3782 13.4366 26.7596 13.4556 27.06 13.65 27.353 13.8331 27.5307 14.1545 27.53 14.5L27.53 60.4999C27.5285 60.8218 27.3722 61.1233 27.11 61.3099 26.9351 61.4425 26.7192 61.5098 26.5 61.4999ZM14.5 55.4999 25.5 59.1499 25.5 16.15 14.5 21.52Z" fill="#FFFFFF" transform="matrix(1 0 -0 1 278 60)"/><path d="M47.4999 27.5 44.5 27.5 44.5 25.5 47.4999 25.5ZM41.5 27.5 38.5 27.5 38.5 25.5 41.5 25.5ZM35.5 27.5 32.5 27.5 32.5 25.5 35.5 25.5ZM29.5 27.5 26.5 27.5 26.5 25.5 29.5 25.5Z" fill="#FFFFFF" transform="matrix(1 0 -0 1 278 60)"/><path d="M47.4999 49.4999 44.5 49.4999 44.5 47.4999 47.4999 47.4999ZM41.5 49.4999 38.5 49.4999 38.5 47.4999 41.5 47.4999ZM35.5 49.4999 32.5 49.4999 32.5 47.4999 35.5 47.4999ZM29.5 49.4999 26.5 49.4999 26.5 47.4999 29.5 47.4999Z" fill="#FFFFFF" transform="matrix(1 0 -0 1 278 60)"/><path d="M33.11 40.94 29.35 37.73C28.9302 37.371 28.8809 36.7398 29.2399 36.32 29.2737 36.2805 29.3105 36.2437 29.35 36.21L33.1 33 34.4 34.52 31.54 37 34.4 39.45Z" fill="#FFFFFF" transform="matrix(1 0 -0 1 278 60)"/><path d="M41.9 40.94 40.6 39.42 43.4599 37 40.59 34.56 41.89 33 45.6499 36.2C46.0697 36.5589 46.119 37.1901 45.76 37.6099 45.7262 37.6494 45.6894 37.6862 45.6499 37.72Z" fill="#FFFFFF" transform="matrix(1 0 -0 1 278 60)"/><path d="M31.29 36.5 43.6999 36.5 43.6999 38.5 31.29 38.5Z" fill="#FFFFFF" transform="matrix(0.320282 -0.947324 0.947322 0.320282 267.96 121)"/></g></g></g><text font-family="Calibri,Calibri_MSFontService,sans-serif" font-weight="400" font-size="19" transform="matrix(1 0 0 1.00067 541.698 164)">AWS Lambda</text><g clip-path="url(#clip15)"><g clip-path="url(#clip16)"><g clip-path="url(#clip17)"><path d="M0 0 75 0 75 75 0 75Z" fill="url(#fill18)" transform="matrix(1 0 -0 1 554 60)"/><path d="M60.5 62.5 48.18 62.5C47.7954 62.4989 47.4454 62.2773 47.28 61.93L29.86 25.5 22.49 25.5C21.9377 25.5 21.49 25.0523 21.49 24.5L21.49 13.5C21.49 12.9477 21.9377 12.5 22.49 12.5L37.89 12.5C38.2747 12.5011 38.6246 12.7227 38.79 13.07L56.13 49.5 60.5 49.5C61.0523 49.5 61.5 49.9477 61.5 50.5L61.5 61.5C61.5 62.0523 61.0523 62.5 60.5 62.5ZM48.81 60.5 59.5 60.5 59.5 51.5 55.5 51.5C55.1154 51.4989 54.7654 51.2773 54.6 50.93L37.26 14.5 23.5 14.5 23.5 23.5 30.5 23.5C30.8847 23.5011 31.2346 23.7227 31.4 24.07Z" fill="#FFFFFF" transform="matrix(1 0 -0 1 554 60)"/><path d="M27.48 62.5 14.48 62.5C14.1345 62.5007 13.8131 62.323 13.63 62.03 13.4356 61.7296 13.4166 61.3483 13.58 61.03L27.18 32.62C27.3454 32.2727 27.6953 32.0511 28.08 32.05L28.08 32.05C28.4624 32.0492 28.8118 32.2666 28.98 32.61L35.49 46C35.6228 46.2748 35.6228 46.5952 35.49 46.87L28.39 61.87C28.2411 62.244 27.8825 62.4923 27.48 62.5ZM16.08 60.5 26.85 60.5 33.48 46.5 28.09 35.35Z" fill="#FFFFFF" transform="matrix(1 0 -0 1 554 60)"/></g></g></g><path d="M0.759069-0.5 109.5-0.5 109.5 185.376 84.5306 185.376 0.760007 185.376 0.760007 184.376 84.5306 184.376 109 184.376 108.5 184.876 108.5 0 109 0.5 0.759069 0.5ZM5.76284 5.04187 0.000703936 0 5.76284-5.04187C5.97066-5.22371 6.28654-5.20265 6.46838-4.99484 6.65022-4.78702 6.62917-4.47114 6.42135-4.2893L1.08925 0.376288 1.08925-0.376288 6.42135 4.2893C6.62917 4.47114 6.65022 4.78702 6.46838 4.99484 6.28654 5.20265 5.97066 5.22371 5.76284 5.04187ZM5.76284 189.918 0.000703936 184.876 5.76284 179.834C5.97066 179.652 6.28654 179.673 6.46838 179.881 6.65022 180.089 6.62917 180.405 6.42135 180.587L1.08925 185.252 1.08925 184.5 6.42135 189.165C6.62917 189.347 6.65022 189.663 6.46838 189.871 6.28654 190.079 5.97066 190.1 5.76284 189.918Z" fill="#44546A" transform="matrix(-1 -8.74228e-08 8.74814e-08 -1.00067 252.5 278.5)"/><path d="M0 0 67.8402 0.000104963" stroke="#545B64" stroke-miterlimit="8" fill="none" fill-rule="evenodd" transform="matrix(1 0 -0 1.00067 75.5 173.5)"/><text font-family="Calibri,Calibri_MSFontService,sans-serif" font-weight="400" font-size="19" transform="matrix(1 0 0 1.00067 165.991 268)">DNS Lookup<tspan x="12.1272" y="-186.875">GET /{id}</tspan></text><path d="M3.03781e-07-0.5 172.004-0.499896 172.004 0.500104-3.03781e-07 0.5ZM166.997-5.04177 172.759 0.000105252 166.997 5.04197C166.789 5.22381 166.473 5.20276 166.292 4.99494 166.11 4.78712 166.131 4.47124 166.339 4.2894L171.671-0.376184 171.671 0.376393 166.339-4.28919C166.131-4.47104 166.11-4.78692 166.292-4.99474 166.473-5.20255 166.789-5.22361 166.997-5.04177Z" fill="#545B64" transform="matrix(1 0 -0 1.00067 367.5 93.5)"/><text font-family="Calibri,Calibri_MSFontService,sans-serif" font-weight="400" font-size="19" transform="matrix(1 0 0 1.00067 425.937 86)">Invoke</text><path d="M0.5-9.46615e-07 0.500104 54.681-0.499896 54.681-0.5 9.46615e-07ZM5.04197 49.6781 0.000104877 55.4403-5.04178 49.6782C-5.22362 49.4703-5.20256 49.1545-4.99474 48.9726-4.78693 48.7908-4.47104 48.8118-4.2892 49.0196L0.376391 54.3517-0.376185 54.3517 4.28939 49.0196C4.47123 48.8118 4.78711 48.7908 4.99493 48.9726 5.20275 49.1544 5.22381 49.4703 5.04197 49.6781Z" fill="#545B64" transform="matrix(-1 -8.74228e-08 -8.74814e-08 1.00067 592.5 174.5)"/><text font-family="Calibri,Calibri_MSFontService,sans-serif" font-weight="400" font-size="19" transform="matrix(1 0 0 1.00067 602.474 188)">Lookup {id} <tspan x="-4.57227" y="22.9846">&amp; increment </tspan><tspan x="25.794" y="44.9698">uses</tspan><tspan x="-86.5145" y="155.895">Amazon DynamoDB</tspan></text><g clip-path="url(#clip19)"><g clip-path="url(#clip20)"><g clip-path="url(#clip21)"><path d="M0 0 74 0 74 74 0 74Z" fill="url(#fill22)" transform="matrix(1.01351 0 -0 1 554 241)"/><path d="M49.58 39.9403 43.0581 46.4523C44.2314 46.1249 45.3636 45.6648 46.4325 45.0808 47.0646 45.4729 47.4935 46.1217 47.6067 46.8568 47.6067 48.6624 43.7784 50.6259 38.0952 51.4251 36.3421 51.6622 34.5757 51.7874 32.8067 51.8L31.82 51.8C23.8477 51.6125 18.0067 49.0965 18.0067 46.8667 18.1198 46.1316 18.5488 45.4827 19.1808 45.0907 22.2789 46.8173 27.3011 47.8435 32.8067 47.8435L32.9152 47.8435 33.4677 45.8701C33.2507 45.8701 33.0336 45.8701 32.8067 45.8701 27.38 45.8701 22.348 44.7947 19.6741 43.0976 18.6085 42.3971 18.0165 41.6373 18.0067 40.9763L18.0067 36.408C21.0259 38.7168 27.0445 39.9205 32.8067 39.9205 33.5861 39.9205 34.3656 39.9205 35.1253 39.8515L35.6877 37.8781C34.7011 37.9472 33.7835 37.9768 32.8067 37.9768 24.3411 37.9768 18.0067 35.3819 18.0067 33.0435 18.1198 32.3084 18.5488 31.6595 19.1808 31.2675 21.904 32.7968 26.0875 33.7539 30.8333 33.9709L30.8827 31.9976C26.2157 31.7707 22.0027 30.7643 19.6741 29.2744 18.6184 28.5936 18.0264 27.824 18.0067 27.1531L18.0067 22.5947C21.0259 24.9035 27.0445 26.1072 32.8067 26.1072L33.0237 26.1072 34.0696 24.1339 32.8067 24.1339C24.3411 24.1339 18.0067 21.5389 18.0067 19.2005 18.0067 16.8621 24.3411 14.2672 32.8067 14.2672 35.6579 14.2551 38.5002 14.5864 41.2723 15.2539L46.6891 15.2539C43.7291 13.4483 38.6181 12.2939 32.8067 12.2939 24.6765 12.2939 16.0333 14.7013 16.0333 19.2005L16.0333 27.1432C16.0934 28.2812 16.6352 29.3397 17.5232 30.0539 16.6237 30.7801 16.0807 31.8587 16.0333 33.0139L16.0333 40.9072C16.0794 42.0627 16.6226 43.1418 17.5232 43.8672 16.6237 44.5934 16.0807 45.6721 16.0333 46.8272L16.0333 54.7205C16.0275 54.7895 16.0275 54.8588 16.0333 54.9277 16.2997 59.2592 24.7851 61.5877 32.8067 61.5877 40.8283 61.5877 49.3136 59.2592 49.58 54.908 49.5897 54.8393 49.5897 54.7695 49.58 54.7008L49.58 46.8075C49.5417 45.65 48.997 44.5678 48.0901 43.8475 48.9907 43.1221 49.5339 42.0429 49.58 40.8875ZM47.6067 54.7403C47.6067 57.0688 41.2723 59.6736 32.8067 59.6736 24.3411 59.6736 18.0067 57.0984 18.0067 54.7403L18.0067 50.2016C21.0259 52.4907 27.0445 53.6944 32.8067 53.6944 38.5688 53.6944 44.5875 52.4907 47.6067 50.2016Z" fill="#FFFFFF" transform="matrix(1.01351 0 -0 1 554 241)"/><path d="M22.2 27.1531C22.2 27.8342 21.6478 28.3864 20.9667 28.3864 20.2855 28.3864 19.7333 27.8342 19.7333 27.1531 19.7333 26.4719 20.2855 25.9197 20.9667 25.9197 21.6478 25.9197 22.2 26.4719 22.2 27.1531Z" fill="#FFFFFF" transform="matrix(1.01351 0 -0 1 554 241)"/><path d="M22.2 40.9664C22.2 41.6476 21.6478 42.1997 20.9667 42.1997 20.2855 42.1997 19.7333 41.6476 19.7333 40.9664 19.7333 40.2853 20.2855 39.7331 20.9667 39.7331 21.6478 39.7331 22.2 40.2853 22.2 40.9664Z" fill="#FFFFFF" transform="matrix(1.01351 0 -0 1 554 241)"/><path d="M22.2 54.7797C22.2 55.4609 21.6478 56.0131 20.9667 56.0131 20.2855 56.0131 19.7333 55.4609 19.7333 54.7797 19.7333 54.0986 20.2855 53.5464 20.9667 53.5464 21.6478 53.5464 22.2 54.0986 22.2 54.7797Z" fill="#FFFFFF" transform="matrix(1.01351 0 -0 1 554 241)"/><path d="M35.2733 50.7936C35.0996 50.7918 34.9294 50.7442 34.78 50.6555 34.3845 50.4277 34.1968 49.9585 34.3261 49.5208L39.8712 31.0603 34.2867 31.0603C33.7418 31.0672 33.2944 30.6312 33.2875 30.0863 33.2853 29.9165 33.327 29.749 33.4085 29.6L39.3285 17.76C39.4957 17.4282 39.8351 17.2185 40.2067 17.2173L53.0333 17.2173C53.5776 17.1903 54.0407 17.6095 54.0678 18.1538 54.0738 18.2744 54.0576 18.3951 54.02 18.5099L51.4941 26.0973 57.0293 26.0973C57.5743 26.0994 58.0143 26.5428 58.0122 27.0878 58.0113 27.34 57.9138 27.5822 57.7397 27.7648L36.0331 50.4581C35.8415 50.6763 35.5636 50.799 35.2733 50.7936ZM35.8851 29.0869 41.1933 29.0869C41.5039 29.0869 41.7963 29.2332 41.9827 29.4816 42.169 29.7301 42.2275 30.0517 42.1405 30.3499L37.3947 46.1365 54.6712 28.0805 50.0733 28.0805C49.5292 28.1095 49.0646 27.6918 49.0357 27.1476 49.0291 27.0223 49.0464 26.8969 49.0867 26.7781L51.6125 19.2005 40.7592 19.2005Z" fill="#FFFFFF" transform="matrix(1.01351 0 -0 1 554 241)"/></g></g></g></g></svg>